<svg width="51" height="11" viewBox="0 0 51 11" fill="none" xmlns="http://www.w3.org/2000/svg">
<path d="M40.1953 0.143997H41.8873V8.544H40.1953V0.143997Z" fill="white"/>
<path d="M36.1891 8.544C35.1651 8.544 34.4291 8.32 33.9811 7.872C33.5411 7.424 33.3211 6.776 33.3211 5.928V0.143997H35.0131V5.928C35.0131 6.368 35.1091 6.696 35.3011 6.912C35.4931 7.12 35.7891 7.224 36.1891 7.224H38.8771V8.544H36.1891Z" fill="white"/>
<path d="M30.3343 6.588H27.0463L26.4823 8.544H24.7903L26.8423 1.848C26.9863 1.368 27.1383 0.996 27.2983 0.732C27.4583 0.468 27.6463 0.28 27.8623 0.168C28.0863 0.0559998 28.3623 0 28.6903 0C29.0183 0 29.2903 0.0559998 29.5063 0.168C29.7223 0.28 29.9103 0.468 30.0703 0.732C30.2383 0.996 30.3943 1.368 30.5383 1.848L32.5903 8.544H30.8983L30.3343 6.588ZM29.9623 5.328L28.9543 1.872C28.8983 1.664 28.8103 1.56 28.6903 1.56C28.5703 1.56 28.4823 1.664 28.4263 1.872L27.4183 5.328H29.9623Z" fill="white"/>
<path d="M15.5625 0.143997H16.4385C16.8785 0.143997 17.2305 0.203997 17.4945 0.323997C17.7585 0.443997 17.9865 0.635998 18.1785 0.899998C18.3705 1.156 18.5945 1.544 18.8505 2.064L19.5465 3.468L20.2425 2.064C20.4985 1.544 20.7225 1.156 20.9145 0.899998C21.1065 0.635998 21.3345 0.443997 21.5985 0.323997C21.8625 0.203997 22.2145 0.143997 22.6545 0.143997H23.5305V8.544H21.9945V1.908C21.8985 1.908 21.8185 1.952 21.7545 2.04C21.6905 2.128 21.5945 2.284 21.4665 2.508L19.5465 6.072L17.6265 2.508C17.4985 2.284 17.4025 2.128 17.3385 2.04C17.2745 1.952 17.1945 1.904 17.0985 1.896V8.544H15.5625V0.143997Z" fill="white"/>
<path d="M11.2876 8.544C10.2236 8.544 9.45959 8.32 8.99559 7.872C8.53159 7.424 8.29959 6.776 8.29959 5.928V2.76C8.29959 1.912 8.53159 1.264 8.99559 0.815997C9.45959 0.367997 10.2236 0.143997 11.2876 0.143997H14.0956V1.464H11.2876C10.8476 1.464 10.5196 1.568 10.3036 1.776C10.0956 1.984 9.99159 2.312 9.99159 2.76V3.684H13.5676V5.004H9.99159V5.928C9.99159 6.368 10.0956 6.696 10.3036 6.912C10.5196 7.12 10.8476 7.224 11.2876 7.224H14.1196V8.544H11.2876Z" fill="white"/>
<path d="M0 0.143997H1.692V3.672H4.956V0.143997H6.648V8.544H4.956V4.992H1.692V8.544H0V0.143997Z" fill="white"/>
<path d="M50.2 7.10001C50.2 8.75686 48.8345 10.1 47.15 10.1C45.4655 10.1 44.1 8.75686 44.1 7.10001C44.1 5.44315 45.4655 4.10001 47.15 4.10001C48.8345 4.10001 50.2 5.44315 50.2 7.10001Z" fill="white"/>
<path fill-rule="evenodd" clip-rule="evenodd" d="M47.15 4.2C45.5192 4.2 44.2 5.49993 44.2 7.1C44.2 8.70007 45.5192 10 47.15 10C48.7808 10 50.1 8.70007 50.1 7.1C50.1 5.49993 48.7808 4.2 47.15 4.2ZM44 7.1C44 5.38637 45.4119 4 47.15 4C48.8881 4 50.3 5.38637 50.3 7.1C50.3 8.81363 48.8881 10.2 47.15 10.2C45.4119 10.2 44 8.81363 44 7.1Z" fill="black"/>
<path d="M49.7425 8.75599C49.6598 8.75599 49.5825 8.73733 49.5105 8.69999C49.4385 8.66266 49.3718 8.61466 49.3105 8.55599C49.2518 8.49999 49.1958 8.44266 49.1425 8.38399C49.1372 8.37599 49.1265 8.36399 49.1105 8.34799L49.1025 8.34399L49.0905 8.33599C49.0692 8.32266 49.0678 8.30666 49.0865 8.28799L49.0785 8.29199C49.0678 8.29199 49.0558 8.28666 49.0425 8.27599C49.0318 8.26799 49.0278 8.25866 49.0305 8.24799L49.0345 8.24399V8.23599C49.0345 8.23333 49.0345 8.23066 49.0345 8.22799C49.0372 8.22799 49.0385 8.22799 49.0385 8.22799H49.0305C49.0225 8.23599 49.0172 8.23999 49.0145 8.23999C49.0038 8.23999 48.9985 8.23333 48.9985 8.21999H48.9945C48.9865 8.21999 48.9825 8.21466 48.9825 8.20399C48.9825 8.19333 48.9838 8.18666 48.9865 8.18399C48.9865 8.17599 48.9825 8.17066 48.9745 8.16799C48.9692 8.16533 48.9638 8.16266 48.9585 8.15999C48.9532 8.15999 48.9478 8.15733 48.9425 8.15199C48.9398 8.14666 48.9265 8.12933 48.9025 8.09999C48.8812 8.07333 48.8598 8.04666 48.8385 8.01999C48.8172 7.99066 48.8065 7.97466 48.8065 7.97199V7.95999H48.8025C48.7945 7.95999 48.7905 7.95866 48.7905 7.95599C48.7745 7.93733 48.7585 7.91733 48.7425 7.89599C48.7292 7.87466 48.7158 7.85466 48.7025 7.83599C48.6598 7.77733 48.6252 7.71466 48.5985 7.64799C48.5718 7.58133 48.5372 7.51866 48.4945 7.45999C48.4758 7.43599 48.4505 7.40266 48.4185 7.35999C48.3892 7.31733 48.3585 7.29599 48.3265 7.29599C48.3212 7.29599 48.3118 7.29733 48.2985 7.29999C48.2878 7.30266 48.2812 7.31199 48.2785 7.32799L48.2625 7.31599H48.2505L48.2465 7.28799H48.2585C48.2772 7.26666 48.3052 7.24933 48.3425 7.23599C48.3825 7.22266 48.4158 7.21599 48.4425 7.21599C48.4745 7.21599 48.5012 7.22666 48.5225 7.24799C48.5438 7.26666 48.5692 7.27599 48.5985 7.27599C48.6038 7.27599 48.6132 7.27599 48.6265 7.27599C48.6425 7.27333 48.6518 7.26799 48.6545 7.25999C48.6758 7.26266 48.7025 7.25999 48.7345 7.25199C48.7665 7.24399 48.7932 7.23866 48.8145 7.23599C48.8438 7.21733 48.8745 7.20399 48.9065 7.19599C48.9412 7.18799 48.9745 7.17866 49.0065 7.16799C49.0518 7.15466 49.1118 7.13333 49.1865 7.10399C49.2638 7.07199 49.3412 7.03599 49.4185 6.99599C49.4985 6.95333 49.5652 6.90933 49.6185 6.86399C49.6745 6.81599 49.7025 6.76799 49.7025 6.71999C49.7025 6.69333 49.6905 6.66933 49.6665 6.64799C49.6452 6.62666 49.6225 6.60799 49.5985 6.59199C49.5078 6.53333 49.4078 6.49733 49.2985 6.48399C49.1892 6.47066 49.0798 6.46399 48.9705 6.46399H48.7425C48.6705 6.46399 48.5998 6.46533 48.5305 6.46799C48.4612 6.46799 48.3918 6.47333 48.3225 6.48399C48.1838 6.50266 48.0452 6.52266 47.9065 6.54399C47.7705 6.56266 47.6358 6.59733 47.5025 6.64799C47.4838 6.65599 47.4518 6.67066 47.4065 6.69199C47.3638 6.71066 47.3438 6.73066 47.3465 6.75199C47.3465 6.76266 47.3558 6.77066 47.3745 6.77599C47.3958 6.77866 47.4198 6.78266 47.4465 6.78799C47.4758 6.79066 47.5038 6.79199 47.5305 6.79199C47.5572 6.79199 47.5772 6.79199 47.5905 6.79199L47.5945 6.81599H47.5785C47.5625 6.82933 47.5425 6.83599 47.5185 6.83599C47.4972 6.83333 47.4785 6.83199 47.4625 6.83199C47.4438 6.83199 47.4252 6.83333 47.4065 6.83599C47.3878 6.83866 47.3678 6.83999 47.3465 6.83999C47.3118 6.83999 47.2732 6.82799 47.2305 6.80399C47.1905 6.77733 47.1678 6.74266 47.1625 6.69999C47.1625 6.68133 47.1798 6.65733 47.2145 6.62799C47.2492 6.59866 47.2865 6.57199 47.3265 6.54799C47.3665 6.52399 47.3945 6.51199 47.4105 6.51199C47.4105 6.51199 47.4118 6.51199 47.4145 6.51199C47.4172 6.51199 47.4198 6.51333 47.4225 6.51599H47.4265L47.5025 6.47999L47.5065 6.48799C47.5625 6.47199 47.6185 6.45599 47.6745 6.43999C47.7332 6.42399 47.7918 6.41466 47.8505 6.41199C47.8558 6.41199 47.8625 6.41199 47.8705 6.41199C47.8785 6.41199 47.8838 6.40933 47.8865 6.40399C47.9558 6.39333 48.0225 6.38533 48.0865 6.37999C48.1505 6.37199 48.2158 6.36533 48.2825 6.35999C48.3038 6.35733 48.3252 6.35466 48.3465 6.35199C48.3678 6.34666 48.3878 6.34399 48.4065 6.34399C48.4572 6.34399 48.5078 6.34533 48.5585 6.34799C48.6118 6.34799 48.6638 6.34933 48.7145 6.35199C48.8212 6.35199 48.9372 6.35599 49.0625 6.36399C49.1905 6.37199 49.3132 6.39466 49.4305 6.43199C49.5478 6.46666 49.6452 6.52933 49.7225 6.61999C49.7492 6.64933 49.7678 6.67999 49.7785 6.71199C49.7918 6.74399 49.7998 6.77999 49.8025 6.81999C49.8025 6.82799 49.8025 6.83599 49.8025 6.84399C49.8025 6.85199 49.8038 6.85999 49.8065 6.86799C49.8118 6.91866 49.7958 6.96666 49.7585 7.01199C49.7212 7.05733 49.6798 7.09066 49.6345 7.11199C49.6078 7.12266 49.5838 7.13599 49.5625 7.15199C49.5412 7.16799 49.5185 7.17999 49.4945 7.18799C49.4625 7.19866 49.4278 7.20933 49.3905 7.21999C49.3558 7.22799 49.3225 7.23733 49.2905 7.24799C49.1945 7.28266 49.0918 7.30799 48.9825 7.32399C48.8758 7.33733 48.7678 7.34399 48.6585 7.34399C48.6665 7.36799 48.6812 7.39999 48.7025 7.43999C48.7265 7.47733 48.7505 7.51466 48.7745 7.55199C48.8012 7.58666 48.8198 7.61333 48.8305 7.63199C48.8678 7.68266 48.9158 7.75066 48.9745 7.83599C49.0332 7.92133 49.0985 8.01199 49.1705 8.10799C49.2452 8.20666 49.3212 8.29866 49.3985 8.38399C49.4785 8.47199 49.5558 8.54266 49.6305 8.59599C49.7078 8.65199 49.7785 8.67999 49.8425 8.67999C49.8878 8.67999 49.9278 8.66266 49.9625 8.62799C49.9865 8.60399 50.0038 8.55599 50.0145 8.48399C50.0278 8.41199 50.0345 8.34266 50.0345 8.27599C50.0345 8.22266 50.0305 8.17999 50.0225 8.14799H50.0505V8.15599H50.0545C50.0838 8.20133 50.0998 8.24666 50.1025 8.29199C50.1052 8.32666 50.1092 8.35999 50.1145 8.39199C50.1225 8.42399 50.1265 8.45733 50.1265 8.49199C50.1265 8.52666 50.1212 8.55866 50.1105 8.58799C50.0972 8.61999 50.0665 8.64799 50.0185 8.67199C49.9732 8.69866 49.9238 8.71866 49.8705 8.73199C49.8172 8.74799 49.7745 8.75599 49.7425 8.75599ZM47.9785 8.22799C47.9358 8.22799 47.8892 8.21466 47.8385 8.18799C47.7905 8.16399 47.7478 8.13333 47.7105 8.09599C47.6732 8.05866 47.6532 8.01999 47.6505 7.97999C47.6452 7.92666 47.6518 7.87599 47.6705 7.82799C47.6892 7.77733 47.7092 7.73199 47.7305 7.69199C47.7412 7.67066 47.7518 7.65066 47.7625 7.63199C47.7732 7.61333 47.7825 7.59599 47.7905 7.57999C47.8092 7.55333 47.8185 7.53066 47.8185 7.51199C47.8238 7.50666 47.8318 7.49999 47.8425 7.49199C47.8532 7.48133 47.8558 7.47333 47.8505 7.46799C47.9225 7.35066 47.9972 7.23866 48.0745 7.13199C48.0825 7.12133 48.0892 7.11066 48.0945 7.09999C48.1025 7.08666 48.1105 7.07466 48.1185 7.06399C48.1372 7.03999 48.1558 7.01733 48.1745 6.99599C48.1958 6.97199 48.2158 6.94933 48.2345 6.92799C48.2638 6.89066 48.2918 6.85333 48.3185 6.81599C48.3452 6.77599 48.3732 6.73866 48.4025 6.70399C48.4158 6.68799 48.4358 6.66666 48.4625 6.63999C48.4892 6.61333 48.5025 6.58933 48.5025 6.56799C48.5025 6.55999 48.4985 6.55199 48.4905 6.54399L48.4825 6.53599C48.4745 6.52799 48.4705 6.51733 48.4705 6.50399L48.4825 6.49199C48.4985 6.49466 48.5292 6.50133 48.5745 6.51199C48.6198 6.52266 48.6625 6.53999 48.7025 6.56399C48.7425 6.58533 48.7625 6.61333 48.7625 6.64799C48.7625 6.67466 48.7478 6.70266 48.7185 6.73199C48.6892 6.76133 48.6572 6.78799 48.6225 6.81199C48.5905 6.83599 48.5652 6.85866 48.5465 6.87999C48.4825 6.94933 48.4092 7.03066 48.3265 7.12399C48.2465 7.21733 48.1692 7.31733 48.0945 7.42399C48.0198 7.52799 47.9598 7.63466 47.9145 7.74399C47.8692 7.85066 47.8505 7.95333 47.8585 8.05199C47.8612 8.07599 47.8678 8.09866 47.8785 8.11999C47.8892 8.14399 47.9078 8.15733 47.9345 8.15999C47.9478 8.15199 47.9692 8.13866 47.9985 8.11999C48.0278 8.10133 48.0572 8.08133 48.0865 8.05999C48.1185 8.03866 48.1465 8.01866 48.1705 7.99999C48.1972 7.98133 48.2105 7.96666 48.2105 7.95599H48.2425C48.2318 7.98533 48.2198 8.00666 48.2065 8.01999C48.1958 8.03333 48.1812 8.05199 48.1625 8.07599C48.1385 8.11066 48.1132 8.14399 48.0865 8.17599C48.0598 8.21066 48.0238 8.22799 47.9785 8.22799Z" fill="black"/>
<path d="M45.3427 8.232C45.316 8.23467 45.288 8.224 45.2587 8.2C45.232 8.176 45.212 8.156 45.1987 8.14C45.156 8.09467 45.128 8.036 45.1147 7.964C45.104 7.88934 45.0987 7.82934 45.0987 7.784C45.0987 7.69867 45.1147 7.61734 45.1467 7.54C45.1787 7.46 45.2107 7.38 45.2427 7.3C45.152 7.31334 45.0613 7.328 44.9707 7.344C44.8827 7.36 44.792 7.368 44.6987 7.368C44.624 7.368 44.5453 7.35734 44.4627 7.336C44.38 7.312 44.324 7.25867 44.2947 7.176C44.292 7.17067 44.2907 7.16267 44.2907 7.152C44.2907 7.136 44.296 7.12134 44.3067 7.108C44.3147 7.092 44.3173 7.07867 44.3147 7.068C44.3387 7.068 44.3507 7.06 44.3507 7.044C44.38 7.02534 44.42 7.004 44.4707 6.98C44.5213 6.95334 44.5733 6.93067 44.6267 6.912C44.6827 6.89067 44.728 6.88 44.7627 6.88C44.8027 6.85334 44.8507 6.84 44.9067 6.84C44.928 6.83467 44.948 6.83334 44.9667 6.836C44.988 6.836 45.0093 6.836 45.0307 6.836C45.0467 6.83067 45.0627 6.828 45.0787 6.828C45.0973 6.82534 45.116 6.824 45.1347 6.824C45.1427 6.82134 45.1533 6.82 45.1667 6.82C45.1773 6.82 45.188 6.82134 45.1987 6.824C45.212 6.824 45.224 6.824 45.2347 6.824L45.2467 6.836V6.86H45.2427V6.864C45.192 6.86667 45.1453 6.87467 45.1027 6.888C45.06 6.89867 45.0133 6.912 44.9627 6.928C44.9387 6.936 44.9027 6.948 44.8547 6.964C44.8093 6.97734 44.76 6.996 44.7067 7.02C44.656 7.04134 44.612 7.06667 44.5747 7.096C44.54 7.12534 44.5227 7.15734 44.5227 7.192C44.5227 7.21334 44.5387 7.22667 44.5707 7.232C44.6027 7.23467 44.6267 7.236 44.6427 7.236C44.696 7.236 44.7373 7.236 44.7667 7.236C44.796 7.23334 44.8253 7.23067 44.8547 7.228C44.8867 7.22267 44.928 7.216 44.9787 7.208L45.2947 7.16C45.3267 7.12267 45.352 7.08267 45.3707 7.04C45.392 6.99467 45.416 6.95067 45.4427 6.908C45.5147 6.79334 45.5907 6.68134 45.6707 6.572C45.7507 6.46267 45.84 6.35867 45.9387 6.26C45.976 6.22267 46.012 6.188 46.0467 6.156C46.0813 6.12134 46.124 6.096 46.1747 6.08C46.196 6.08534 46.22 6.096 46.2467 6.112C46.2733 6.12534 46.2933 6.14267 46.3067 6.164C46.32 6.18 46.3267 6.2 46.3267 6.224C46.3267 6.24267 46.3213 6.26 46.3107 6.276C46.3 6.292 46.288 6.30667 46.2747 6.32C46.2693 6.32534 46.2587 6.33734 46.2427 6.356C46.2267 6.372 46.2093 6.388 46.1907 6.404C46.1747 6.42 46.164 6.428 46.1587 6.428H46.1387V6.404C46.112 6.41734 46.0893 6.436 46.0707 6.46C46.052 6.484 46.032 6.50534 46.0107 6.524C45.9947 6.53734 45.9787 6.55067 45.9627 6.564C45.9467 6.57467 45.9307 6.58667 45.9147 6.6C45.904 6.608 45.88 6.636 45.8427 6.684C45.808 6.72934 45.768 6.78267 45.7227 6.844C45.68 6.90267 45.64 6.95867 45.6027 7.012C45.568 7.06267 45.5467 7.09867 45.5387 7.12C45.592 7.11467 45.636 7.108 45.6707 7.1C45.7053 7.092 45.752 7.084 45.8107 7.076C45.8853 7.068 45.96 7.06134 46.0347 7.056C46.112 7.048 46.188 7.03867 46.2627 7.028L46.3427 7.016C46.364 7.01067 46.3987 7.00667 46.4467 7.004C46.4947 7.00134 46.5267 6.99467 46.5427 6.984C46.5613 6.95467 46.5907 6.90934 46.6307 6.848C46.6707 6.784 46.7173 6.71467 46.7707 6.64C46.824 6.56267 46.8773 6.48934 46.9307 6.42C46.9867 6.348 47.0387 6.288 47.0867 6.24C47.1347 6.18934 47.172 6.16 47.1987 6.152C47.2067 6.14667 47.2173 6.14134 47.2307 6.136C47.244 6.13067 47.2547 6.128 47.2627 6.128C47.2867 6.128 47.3187 6.13867 47.3587 6.16C47.3987 6.17867 47.4227 6.20267 47.4307 6.232C47.396 6.248 47.3627 6.26267 47.3307 6.276C47.312 6.28667 47.2973 6.29867 47.2867 6.312C47.276 6.32534 47.2587 6.33334 47.2347 6.336V6.344H47.2227C47.2173 6.35467 47.2093 6.36134 47.1987 6.364L47.1907 6.372C47.188 6.37467 47.1867 6.376 47.1867 6.376H47.1907L47.2027 6.4H47.1867C47.112 6.488 47.0427 6.58134 46.9787 6.68C46.9147 6.776 46.8613 6.876 46.8187 6.98V6.984C46.8187 6.98934 46.8173 6.992 46.8147 6.992V7C46.8707 7.00267 46.9307 7.012 46.9947 7.028C47.0587 7.04134 47.1187 7.064 47.1747 7.096C47.2307 7.12534 47.272 7.168 47.2987 7.224C47.304 7.23467 47.308 7.24534 47.3107 7.256C47.3133 7.264 47.3147 7.27467 47.3147 7.288C47.3147 7.30667 47.3067 7.328 47.2907 7.352C47.2773 7.37334 47.2573 7.384 47.2307 7.384L47.1987 7.336C47.2093 7.32267 47.2173 7.30934 47.2227 7.296C47.2307 7.28 47.2347 7.26667 47.2347 7.256C47.2347 7.21867 47.2173 7.19067 47.1827 7.172C47.148 7.15334 47.108 7.14 47.0627 7.132C47.02 7.124 46.9813 7.12 46.9467 7.12C46.9093 7.12 46.8667 7.12534 46.8187 7.136C46.7707 7.144 46.736 7.16267 46.7147 7.192C46.6827 7.23467 46.6547 7.29734 46.6307 7.38C46.6093 7.46267 46.5933 7.54667 46.5827 7.632C46.572 7.71734 46.568 7.78934 46.5707 7.848C46.5733 7.864 46.576 7.88667 46.5787 7.916C46.584 7.94534 46.5933 7.97334 46.6067 8C46.62 8.024 46.6387 8.036 46.6627 8.036C46.6893 8.036 46.7173 8.024 46.7467 8C46.776 7.97334 46.804 7.944 46.8307 7.912C46.86 7.88 46.8827 7.85467 46.8987 7.836L46.9267 7.868C46.9027 7.88934 46.8867 7.912 46.8787 7.936C46.8733 7.96 46.864 7.98667 46.8507 8.016C46.84 8.04267 46.8253 8.06534 46.8067 8.084C46.788 8.10267 46.7573 8.112 46.7147 8.112C46.688 8.112 46.6613 8.10667 46.6347 8.096C46.6107 8.08267 46.588 8.06934 46.5667 8.056C46.54 8.04267 46.5133 8.03067 46.4867 8.02C46.46 8.00934 46.4333 7.99467 46.4067 7.976C46.38 7.95734 46.3573 7.93334 46.3387 7.904C46.32 7.872 46.3107 7.82667 46.3107 7.768C46.3107 7.66134 46.332 7.54534 46.3747 7.42C46.42 7.292 46.464 7.18134 46.5067 7.088H46.4987V7.084C46.4533 7.08667 46.4213 7.092 46.4027 7.1C46.3867 7.10534 46.3533 7.11067 46.3027 7.116C46.284 7.11867 46.2453 7.12534 46.1867 7.136C46.128 7.144 46.06 7.15467 45.9827 7.168C45.908 7.17867 45.8333 7.19067 45.7587 7.204C45.684 7.21734 45.6213 7.22933 45.5707 7.24C45.52 7.25067 45.492 7.25867 45.4867 7.264C45.4733 7.27734 45.4587 7.308 45.4427 7.356C45.4267 7.404 45.412 7.45334 45.3987 7.504C45.3853 7.55467 45.376 7.592 45.3707 7.616C45.3707 7.624 45.3693 7.63867 45.3667 7.66C45.364 7.68134 45.36 7.70267 45.3547 7.724C45.352 7.74267 45.348 7.76 45.3427 7.776C45.3373 7.792 45.332 7.80534 45.3267 7.816C45.3293 7.824 45.3307 7.836 45.3307 7.852C45.3307 7.86534 45.3293 7.87867 45.3267 7.892C45.3267 7.90534 45.3267 7.91867 45.3267 7.932C45.3373 8.03334 45.38 8.11867 45.4547 8.188L45.4667 8.196C45.472 8.19867 45.4747 8.20134 45.4747 8.204C45.4747 8.20667 45.4747 8.208 45.4747 8.208C45.4747 8.21334 45.4693 8.21734 45.4587 8.22C45.448 8.22267 45.44 8.22534 45.4347 8.228L45.3427 8.232Z" fill="black"/>
</svg>
