<svg width="400" height="400" viewBox="0 0 400 400" fill="none" xmlns="http://www.w3.org/2000/svg">
<path d="M393.651 200C393.651 306.894 306.95 393.548 200 393.548C93.0495 393.548 6.34911 306.894 6.34911 200C6.34911 93.1061 93.0495 6.45151 200 6.45151C306.95 6.45151 393.651 93.1061 393.651 200Z" fill="#FF1E00" fill-opacity="0.23"/>
<path fill-rule="evenodd" clip-rule="evenodd" d="M200 12.9032C96.4568 12.9032 12.6984 96.7694 12.6984 200C12.6984 303.231 96.4568 387.097 200 387.097C303.543 387.097 387.302 303.231 387.302 200C387.302 96.7694 303.543 12.9032 200 12.9032ZM0 200C0 89.4429 89.6424 0 200 0C310.358 0 400 89.4429 400 200C400 310.557 310.358 400 200 400C89.6424 400 0 310.557 0 200Z" fill="black"/>
<path d="M364.604 306.839C359.355 306.839 354.445 305.634 349.873 303.226C345.302 300.817 341.069 297.72 337.175 293.935C333.45 290.323 329.895 286.624 326.508 282.839C326.17 282.323 325.492 281.548 324.477 280.516L323.969 280.258L323.207 279.742C321.852 278.882 321.768 277.849 322.953 276.645L322.445 276.903C321.768 276.903 321.006 276.559 320.159 275.871C319.482 275.355 319.228 274.753 319.397 274.065L319.651 273.806V273.29C319.651 273.118 319.651 272.946 319.651 272.774C319.821 272.774 319.905 272.774 319.905 272.774H319.397C318.889 273.29 318.551 273.548 318.381 273.548C317.704 273.548 317.365 273.118 317.365 272.258H317.112C316.604 272.258 316.35 271.914 316.35 271.226C316.35 270.538 316.434 270.108 316.604 269.935C316.604 269.419 316.35 269.075 315.842 268.903C315.503 268.731 315.164 268.559 314.826 268.387C314.487 268.387 314.149 268.215 313.81 267.871C313.641 267.527 312.794 266.409 311.27 264.516C309.916 262.796 308.561 261.075 307.207 259.355C305.852 257.462 305.175 256.43 305.175 256.258V255.484H304.921C304.413 255.484 304.159 255.398 304.159 255.226C303.143 254.022 302.127 252.731 301.112 251.355C300.265 249.978 299.418 248.688 298.572 247.484C295.863 243.699 293.662 239.656 291.969 235.355C290.276 231.054 288.074 227.011 285.365 223.226C284.18 221.677 282.572 219.527 280.54 216.774C278.678 214.022 276.731 212.645 274.699 212.645C274.36 212.645 273.768 212.731 272.921 212.903C272.244 213.075 271.821 213.677 271.651 214.71L270.635 213.935H269.873L269.619 212.129H270.381C271.567 210.753 273.344 209.634 275.715 208.774C278.254 207.914 280.371 207.484 282.064 207.484C284.096 207.484 285.789 208.172 287.143 209.548C288.498 210.753 290.106 211.355 291.969 211.355C292.307 211.355 292.9 211.355 293.746 211.355C294.762 211.183 295.355 210.839 295.524 210.323C296.879 210.495 298.572 210.323 300.604 209.806C302.635 209.29 304.328 208.946 305.683 208.774C307.545 207.57 309.492 206.71 311.524 206.194C313.725 205.677 315.842 205.075 317.873 204.387C320.752 203.527 324.561 202.151 329.302 200.258C334.212 198.194 339.122 195.871 344.032 193.29C349.112 190.538 353.344 187.699 356.731 184.774C360.286 181.677 362.064 178.581 362.064 175.484C362.064 173.763 361.302 172.215 359.778 170.839C358.424 169.462 356.985 168.258 355.461 167.226C349.704 163.441 343.355 161.118 336.413 160.258C329.471 159.398 322.53 158.968 315.588 158.968H301.112C296.54 158.968 292.053 159.054 287.651 159.226C283.249 159.226 278.847 159.57 274.445 160.258C265.641 161.462 256.836 162.753 248.032 164.129C239.397 165.333 230.847 167.57 222.381 170.839C221.196 171.355 219.164 172.301 216.286 173.677C213.577 174.882 212.307 176.172 212.477 177.548C212.477 178.237 213.069 178.753 214.254 179.097C215.609 179.269 217.133 179.527 218.826 179.871C220.688 180.043 222.466 180.129 224.159 180.129C225.852 180.129 227.122 180.129 227.969 180.129L228.223 181.677H227.207C226.191 182.538 224.921 182.968 223.397 182.968C222.043 182.796 220.858 182.71 219.842 182.71C218.656 182.71 217.471 182.796 216.286 182.968C215.101 183.14 213.831 183.226 212.477 183.226C210.276 183.226 207.821 182.452 205.112 180.903C202.572 179.183 201.133 176.946 200.794 174.194C200.794 172.989 201.895 171.441 204.096 169.548C206.297 167.656 208.667 165.935 211.207 164.387C213.746 162.839 215.524 162.065 216.54 162.065C216.54 162.065 216.625 162.065 216.794 162.065C216.963 162.065 217.133 162.151 217.302 162.323H217.556L222.381 160L222.635 160.516C226.191 159.484 229.746 158.452 233.302 157.419C237.027 156.387 240.752 155.785 244.477 155.613C244.815 155.613 245.239 155.613 245.746 155.613C246.254 155.613 246.593 155.441 246.762 155.097C251.164 154.409 255.397 153.892 259.461 153.548C263.524 153.032 267.672 152.602 271.905 152.258C273.26 152.086 274.614 151.914 275.969 151.742C277.323 151.398 278.593 151.226 279.778 151.226C282.995 151.226 286.212 151.312 289.429 151.484C292.815 151.484 296.117 151.57 299.334 151.742C306.106 151.742 313.471 152 321.429 152.516C329.556 153.032 337.344 154.495 344.794 156.903C352.244 159.14 358.424 163.183 363.334 169.032C365.027 170.925 366.212 172.903 366.889 174.968C367.736 177.032 368.244 179.355 368.413 181.935C368.413 182.452 368.413 182.968 368.413 183.484C368.413 184 368.498 184.516 368.667 185.032C369.006 188.301 367.99 191.398 365.619 194.323C363.249 197.247 360.625 199.398 357.746 200.774C356.053 201.462 354.529 202.323 353.175 203.355C351.821 204.387 350.381 205.161 348.858 205.677C346.826 206.366 344.625 207.054 342.254 207.742C340.053 208.258 337.937 208.86 335.905 209.548C329.81 211.785 323.291 213.419 316.35 214.452C309.577 215.312 302.72 215.742 295.778 215.742C296.286 217.29 297.217 219.355 298.572 221.935C300.096 224.344 301.619 226.753 303.143 229.161C304.836 231.398 306.022 233.118 306.699 234.323C309.069 237.591 312.117 241.979 315.842 247.484C319.567 252.989 323.715 258.839 328.286 265.032C333.027 271.398 337.852 277.333 342.762 282.839C347.842 288.516 352.752 293.075 357.492 296.516C362.403 300.129 366.889 301.935 370.953 301.935C373.831 301.935 376.371 300.817 378.572 298.581C380.096 297.032 381.196 293.935 381.873 289.29C382.72 284.645 383.143 280.172 383.143 275.871C383.143 272.43 382.889 269.677 382.381 267.613H384.159V268.129H384.413C386.276 271.054 387.291 273.978 387.461 276.903C387.63 279.14 387.884 281.29 388.223 283.355C388.731 285.419 388.985 287.57 388.985 289.806C388.985 292.043 388.646 294.108 387.969 296C387.122 298.065 385.175 299.871 382.127 301.419C379.249 303.14 376.117 304.43 372.731 305.29C369.344 306.323 366.635 306.839 364.604 306.839ZM252.604 272.774C249.895 272.774 246.932 271.914 243.715 270.194C240.667 268.645 237.958 266.667 235.588 264.258C233.217 261.849 231.947 259.355 231.778 256.774C231.44 253.333 231.863 250.065 233.048 246.968C234.233 243.699 235.503 240.774 236.858 238.194C237.535 236.817 238.212 235.527 238.889 234.323C239.567 233.118 240.159 232 240.667 230.968C241.852 229.247 242.445 227.785 242.445 226.581C242.783 226.237 243.291 225.806 243.969 225.29C244.646 224.602 244.815 224.086 244.477 223.742C249.048 216.172 253.789 208.946 258.699 202.065C259.207 201.376 259.63 200.688 259.969 200C260.477 199.14 260.985 198.366 261.492 197.677C262.678 196.129 263.863 194.667 265.048 193.29C266.403 191.742 267.672 190.28 268.858 188.903C270.72 186.495 272.498 184.086 274.191 181.677C275.884 179.097 277.662 176.688 279.524 174.452C280.371 173.419 281.641 172.043 283.334 170.323C285.027 168.602 285.873 167.054 285.873 165.677C285.873 165.161 285.619 164.645 285.112 164.129L284.604 163.613C284.096 163.097 283.842 162.409 283.842 161.548L284.604 160.774C285.619 160.946 287.567 161.376 290.445 162.065C293.323 162.753 296.032 163.871 298.572 165.419C301.112 166.796 302.381 168.602 302.381 170.839C302.381 172.559 301.45 174.366 299.588 176.258C297.725 178.151 295.694 179.871 293.492 181.419C291.461 182.968 289.852 184.43 288.667 185.806C284.604 190.28 279.947 195.527 274.699 201.548C269.619 207.57 264.709 214.022 259.969 220.903C255.228 227.613 251.418 234.495 248.54 241.548C245.662 248.43 244.477 255.054 244.985 261.419C245.154 262.968 245.577 264.43 246.254 265.806C246.932 267.355 248.117 268.215 249.81 268.387C250.656 267.871 252.011 267.011 253.873 265.806C255.736 264.602 257.598 263.312 259.461 261.935C261.492 260.559 263.27 259.269 264.794 258.065C266.487 256.86 267.334 255.914 267.334 255.226H269.365C268.688 257.118 267.926 258.495 267.08 259.355C266.403 260.215 265.471 261.419 264.286 262.968C262.762 265.204 261.154 267.355 259.461 269.419C257.768 271.656 255.482 272.774 252.604 272.774Z" fill="black"/>
<path d="M85.2486 273.032C83.5554 273.204 81.7777 272.516 79.9152 270.968C78.2221 269.419 76.9523 268.129 76.1057 267.097C73.3967 264.172 71.6189 260.387 70.7724 255.742C70.0951 250.925 69.7565 247.054 69.7565 244.129C69.7565 238.624 70.7724 233.376 72.8041 228.387C74.8359 223.226 76.8676 218.065 78.8994 212.903C73.1427 213.763 67.3861 214.71 61.6295 215.742C56.0422 216.774 50.2856 217.29 44.3597 217.29C39.6189 217.29 34.6242 216.602 29.3755 215.226C24.1269 213.677 20.5713 210.237 18.7089 204.903C18.5396 204.559 18.4549 204.043 18.4549 203.355C18.4549 202.323 18.7935 201.376 19.4708 200.516C19.9787 199.484 20.148 198.624 19.9787 197.935C21.5025 197.935 22.2644 197.419 22.2644 196.387C24.1269 195.183 26.6665 193.806 29.8835 192.258C33.1004 190.538 36.402 189.075 39.7882 187.871C43.3438 186.495 46.2221 185.806 48.4232 185.806C50.9628 184.086 54.0105 183.226 57.566 183.226C58.9205 182.882 60.1904 182.796 61.3755 182.968C62.73 182.968 64.0845 182.968 65.439 182.968C66.4549 182.624 67.4708 182.452 68.4866 182.452C69.6718 182.28 70.857 182.194 72.0422 182.194C72.5501 182.022 73.2274 181.935 74.074 181.935C74.7512 181.935 75.4285 182.022 76.1057 182.194C76.9523 182.194 77.7142 182.194 78.3914 182.194L79.1533 182.968V184.516H78.8994V184.774C75.6824 184.946 72.7195 185.462 70.0105 186.323C67.3015 187.011 64.3385 187.871 61.1216 188.903C59.5978 189.419 57.312 190.194 54.2644 191.226C51.3861 192.086 48.2538 193.29 44.8676 194.839C41.6507 196.215 38.857 197.849 36.4866 199.742C34.2856 201.634 33.1851 203.699 33.1851 205.936C33.1851 207.312 34.2009 208.172 36.2327 208.516C38.2644 208.688 39.7882 208.774 40.8041 208.774C44.1904 208.774 46.8147 208.774 48.6771 208.774C50.5396 208.602 52.402 208.43 54.2644 208.258C56.2962 207.914 58.9205 207.484 62.1374 206.968L82.2009 203.871C84.2327 201.462 85.8412 198.882 87.0263 196.129C88.3808 193.204 89.9046 190.366 91.5978 187.613C96.1692 180.215 100.995 172.989 106.074 165.935C111.153 158.882 116.825 152.172 123.09 145.806C125.46 143.398 127.746 141.161 129.947 139.097C132.148 136.86 134.857 135.226 138.074 134.194C139.428 134.538 140.952 135.226 142.645 136.258C144.339 137.118 145.608 138.237 146.455 139.613C147.301 140.645 147.725 141.935 147.725 143.484C147.725 144.688 147.386 145.806 146.709 146.839C146.032 147.871 145.27 148.817 144.423 149.677C144.085 150.022 143.407 150.796 142.391 152C141.376 153.032 140.275 154.065 139.09 155.097C138.074 156.129 137.397 156.645 137.058 156.645H135.788V155.097C134.095 155.957 132.656 157.161 131.471 158.71C130.286 160.258 129.016 161.634 127.661 162.839C126.645 163.699 125.63 164.559 124.614 165.419C123.598 166.108 122.582 166.882 121.566 167.742C120.889 168.258 119.365 170.065 116.995 173.161C114.794 176.086 112.254 179.527 109.376 183.484C106.667 187.269 104.127 190.882 101.756 194.323C99.5554 197.591 98.2009 199.914 97.693 201.29C101.079 200.946 103.873 200.516 106.074 200C108.275 199.484 111.238 198.968 114.963 198.452C119.704 197.935 124.444 197.505 129.185 197.161C134.095 196.645 138.921 196.043 143.661 195.355L148.741 194.581C150.095 194.237 152.296 193.979 155.344 193.806C158.391 193.634 160.423 193.204 161.439 192.516C162.624 190.624 164.487 187.699 167.026 183.742C169.566 179.613 172.529 175.14 175.915 170.323C179.301 165.333 182.688 160.602 186.074 156.129C189.63 151.484 192.931 147.613 195.979 144.516C199.026 141.247 201.397 139.355 203.09 138.839C203.598 138.495 204.275 138.151 205.122 137.806C205.968 137.462 206.645 137.29 207.153 137.29C208.677 137.29 210.709 137.978 213.249 139.355C215.788 140.559 217.312 142.108 217.82 144C215.619 145.032 213.503 145.978 211.471 146.839C210.286 147.527 209.354 148.301 208.677 149.161C208 150.022 206.899 150.538 205.376 150.71V151.226H204.614C204.275 151.914 203.767 152.344 203.09 152.516L202.582 153.032C202.413 153.204 202.328 153.29 202.328 153.29H202.582L203.344 154.839H202.328C197.587 160.516 193.185 166.538 189.122 172.903C185.058 179.097 181.672 185.548 178.963 192.258V192.516C178.963 192.86 178.878 193.032 178.709 193.032V193.548C182.264 193.72 186.074 194.323 190.137 195.355C194.201 196.215 198.01 197.677 201.566 199.742C205.122 201.634 207.746 204.387 209.439 208C209.778 208.688 210.032 209.376 210.201 210.065C210.37 210.581 210.455 211.269 210.455 212.129C210.455 213.333 209.947 214.71 208.931 216.258C208.085 217.634 206.815 218.323 205.122 218.323L203.09 215.226C203.767 214.366 204.275 213.505 204.614 212.645C205.122 211.613 205.376 210.753 205.376 210.065C205.376 207.656 204.275 205.849 202.074 204.645C199.873 203.441 197.333 202.581 194.455 202.065C191.746 201.548 189.291 201.29 187.09 201.29C184.719 201.29 182.01 201.634 178.963 202.323C175.915 202.839 173.714 204.043 172.36 205.936C170.328 208.688 168.55 212.731 167.026 218.065C165.672 223.398 164.656 228.817 163.979 234.323C163.301 239.828 163.048 244.473 163.217 248.258C163.386 249.29 163.555 250.753 163.725 252.645C164.063 254.538 164.656 256.344 165.503 258.065C166.349 259.613 167.534 260.387 169.058 260.387C170.751 260.387 172.529 259.613 174.391 258.065C176.254 256.344 178.032 254.452 179.725 252.387C181.587 250.323 183.026 248.688 184.042 247.484L185.82 249.548C184.296 250.925 183.28 252.387 182.772 253.936C182.434 255.484 181.841 257.204 180.995 259.097C180.317 260.817 179.386 262.28 178.201 263.484C177.016 264.688 175.069 265.29 172.36 265.29C170.667 265.29 168.973 264.946 167.28 264.258C165.757 263.398 164.317 262.538 162.963 261.677C161.27 260.817 159.577 260.043 157.883 259.355C156.19 258.667 154.497 257.72 152.804 256.516C151.111 255.312 149.672 253.763 148.487 251.871C147.301 249.806 146.709 246.882 146.709 243.097C146.709 236.215 148.063 228.731 150.772 220.645C153.651 212.387 156.444 205.247 159.153 199.226H158.645V198.968C155.767 199.14 153.735 199.484 152.55 200C151.534 200.344 149.418 200.688 146.201 201.032C145.016 201.204 142.561 201.634 138.836 202.323C135.111 202.839 130.794 203.527 125.883 204.387C121.143 205.075 116.402 205.849 111.661 206.71C106.921 207.57 102.942 208.344 99.7248 209.032C96.5078 209.72 94.73 210.237 94.3914 210.581C93.5449 211.441 92.6136 213.419 91.5978 216.516C90.5819 219.613 89.6507 222.796 88.8041 226.065C87.9576 229.333 87.365 231.742 87.0263 233.29C87.0263 233.806 86.9417 234.753 86.7724 236.129C86.6031 237.505 86.3491 238.882 86.0105 240.258C85.8411 241.462 85.5872 242.581 85.2486 243.613C84.9099 244.645 84.5713 245.505 84.2327 246.194C84.402 246.71 84.4867 247.484 84.4867 248.516C84.4867 249.376 84.402 250.237 84.2327 251.097C84.2327 251.957 84.2327 252.817 84.2327 253.677C84.9099 260.215 87.6189 265.72 92.3597 270.194L93.1216 270.71C93.4602 270.882 93.6295 271.054 93.6295 271.226C93.6295 271.398 93.6295 271.484 93.6295 271.484C93.6295 271.828 93.2909 272.086 92.6136 272.258C91.9364 272.43 91.4285 272.602 91.0898 272.774L85.2486 273.032Z" fill="black"/>
</svg>
