<svg width="25" height="25" viewBox="0 0 25 25" fill="none" xmlns="http://www.w3.org/2000/svg">
<path d="M12.7 24.8C19.3283 24.8 24.7 19.4185 24.7 12.8C24.7 6.18143 19.3283 0.799988 12.7 0.799988C6.07157 0.799988 0.699951 6.18143 0.699951 12.8C0.699951 19.4185 6.09184 24.8 12.7 24.8Z" fill="black"/>
<path d="M16.308 17.2536L16.2877 18.4701L16.2067 21.9752V22.1196C10.2675 16.9856 9.25397 15.7278 9.0918 15.3567V15.3361C9.07153 15.2742 9.07153 15.1917 9.07153 15.1093C9.07153 15.0886 9.07153 15.0474 9.0918 15.0268C9.0918 15.0062 9.11207 14.9856 9.11207 14.9649C9.17288 14.8 9.27424 14.635 9.37559 14.5113C9.45667 14.4082 9.53775 14.3051 9.6391 14.2227C9.8418 14.0165 10.0648 13.8309 10.2877 13.666C10.4094 13.5835 10.531 13.501 10.6526 13.3979C10.8959 13.233 11.1594 13.068 11.4432 12.9031C13.5715 14.8825 16.2877 17.2124 16.308 17.2536Z" fill="url(#paint0_linear_84_33)"/>
<path d="M16.3891 5.70721L16.3688 6.92371L16.3486 7.52164L16.3283 8.73814L16.308 9.3567L16.2877 10.5732C16.2472 10.5938 13.531 11.6454 11.4634 12.8825C11.1796 13.0474 10.9161 13.2124 10.6729 13.3773C10.5513 13.4598 10.4296 13.5423 10.308 13.6454C10.085 13.8103 9.86207 13.9959 9.65937 14.2021C9.55802 14.3051 9.47694 14.3876 9.39586 14.4907C9.21342 14.7381 9.0918 14.9649 9.07153 15.1917L9.0918 14.1814V14.0165V13.9546L9.11207 13.3155L9.15261 12.0371L9.17288 11.4186L9.21342 10.1608C9.6391 8.40824 15.6796 5.99587 16.3891 5.70721Z" fill="white"/>
<path d="M10.8145 7.04737C11.8078 7.04737 12.5983 6.24325 12.5983 5.27417C12.5983 4.28448 11.8078 3.50098 10.8145 3.50098C9.8213 3.50098 9.03076 4.3051 9.03076 5.27417C9.03076 6.26386 9.8213 7.04737 10.8145 7.04737Z" fill="white"/>
<defs>
<linearGradient id="paint0_linear_84_33" x1="15.048" y1="19.1256" x2="8.00817" y2="11.0079" gradientUnits="userSpaceOnUse">
<stop stop-color="white"/>
<stop offset="1"/>
</linearGradient>
</defs>
</svg>
