<svg width="190" height="64" viewBox="0 0 190 64" fill="none" xmlns="http://www.w3.org/2000/svg">
<path d="M7.22081 21.2612C7.22081 21.2612 4.29676 32.4518 7.22081 44.4762C7.22081 44.4763 -8.78651 28.2061 7.22081 21.2612Z" fill="url(#paint0_radial_715_2026)"/>
<path d="M19.8612 20.8254C19.8612 20.8254 13.1202 28.6278 16.1025 39.2917C16.1025 39.2917 21.4953 53.9983 36.8972 53.2607C36.8972 53.2607 9.54499 57.2277 4.13277 34.5941C3.23282 30.8354 5.18095 21.4421 7.72736 20.8254C10.4237 20.1717 11.8126 20.1717 19.8612 20.8254Z" fill="url(#paint1_linear_715_2026)"/>
<path d="M15.5815 29.632C15.5815 29.632 14.1715 46.8902 29.9512 46.8902C34.9345 46.8902 38.3669 47.1762 44.2097 37.0859C44.5396 36.5141 45.0266 35.6141 46.539 36.267C47.1425 36.5283 47.0525 37.6999 46.3343 39.4964C45.4767 41.6387 44.658 43.601 42.8614 46.9292C42.8614 46.9292 41.8079 50.0207 45.0884 49.6679C46.0802 49.562 48.1537 49.6396 49.4013 48.3126C49.4013 48.3126 40.4103 58.3289 26.1607 51.6301C26.1607 51.6302 11.3622 43.4987 15.5815 29.632Z" fill="url(#paint2_linear_715_2026)"/>
<path d="M13.3159 10.961C16.0035 7.93198 28.6666 -5.45385 44.0157 2.4766C44.0157 2.4766 49.892 8.09081 44.0105 10.9099C44.0105 10.9099 36.6236 11.321 35.8894 13.0363C35.8894 13.0363 34.0312 12.8404 31.3685 12.3269C29.969 12.0568 23.955 10.4148 22.2451 10.294C18.6275 10.0399 15.6752 10.4202 13.3159 10.961Z" fill="url(#paint3_linear_715_2026)"/>
<path d="M43.7668 2.5649C43.765 2.59481 43.908 2.71138 43.9293 2.73533C44.0227 2.84113 44.1109 2.95406 44.1956 3.06699C44.5115 3.49327 44.7886 3.95029 45.0266 4.42404C46.232 6.82745 45.8826 9.93768 43.7509 11.7528C43.2392 12.1877 42.5457 12.5963 41.8927 12.7709C40.7828 13.0656 39.5316 12.9845 38.3899 12.9765C37.8606 12.9713 37.3311 12.9395 36.8018 12.891C35.7907 12.7983 35.9971 12.8142 34.9524 12.6898C34.206 12.6007 33.4596 12.5036 32.7167 12.3915C31.8731 12.2644 31.0314 12.1171 30.1915 11.9575C29.2262 11.774 28.2645 11.5737 27.3063 11.3637C26.2032 11.1219 25.1021 10.8661 24.0028 10.6058C23.7275 10.5405 23.4574 10.4478 23.1769 10.409C2.74204 7.5897 -0.220788 27.2489 0.0121121 28.8733C0.502768 32.3056 -1.33599 16.3318 22.6051 22.255C22.6051 22.255 43.1951 30.1405 50.0366 20.2539C56.8799 10.3673 43.8074 1.46196 43.7668 2.5649Z" fill="url(#paint4_linear_715_2026)"/>
<path d="M43.7632 2.47217C43.7632 2.47217 50.0011 13.4202 36.8864 12.5625C23.7731 11.7042 11.9622 4.71956 2.55127 20.2424C2.55127 20.2424 9.09294 11.5823 22.2749 15.259C35.4569 18.9356 40.1156 17.71 43.2198 17.0562C46.3238 16.4024 53.4458 9.33498 43.7632 2.47217Z" fill="url(#paint5_linear_715_2026)"/>
<path d="M58.1223 29.0603C59.0471 39.4822 52.0255 50.0421 41.5664 52.6572C31.1072 55.269 14.156 52.9362 6.03857 39.5917C6.03857 39.5917 8.62566 58.9819 29.1344 62.6594C40.6735 64.7276 53.4249 58.0925 58.7665 46.9963C60.0935 44.2435 62.9152 39.9164 62.5888 29.6321C62.4813 26.273 61.3358 19.4915 58.1806 20.2907C56.9843 20.5943 57.0318 21.9672 57.1941 24.3936L58.1223 29.0603Z" fill="url(#paint6_linear_715_2026)"/>
<path d="M84.742 14.4779C84.5147 14.4779 84.3168 14.4034 84.1467 14.2514C83.9768 14.1005 83.8917 13.9028 83.8917 13.6573C83.8917 13.5435 83.883 13.4118 83.8639 13.2604C83.8257 13.0148 83.7685 12.675 83.6938 12.2409C83.4282 11.1639 82.9474 10.2858 82.248 9.60649C81.1548 8.49203 79.5683 7.93509 77.4892 7.93509C75.9985 7.93509 74.8234 8.19972 73.9626 8.728C73.1054 9.25668 72.4579 9.95612 72.0222 10.8237C71.5883 11.6935 71.3142 12.6703 71.2031 13.7559C71.0886 14.8424 71.033 15.9323 71.033 17.0274C71.033 17.4057 71.0364 17.8302 71.0469 18.3023C71.0556 18.7741 71.0886 19.2698 71.1442 19.7894C71.2031 20.3095 71.2863 20.8325 71.4011 21.3609C71.5138 21.8904 71.6734 22.3997 71.8816 22.8908C72.8258 25.0439 74.695 26.1197 77.4892 26.1198C80.2107 26.1198 82.078 25.1565 83.0985 23.231C83.2876 22.8725 83.4386 22.5133 83.5532 22.1542C83.6642 21.7957 83.744 21.4798 83.7927 21.2057C83.8395 20.9324 83.8725 20.6252 83.8916 20.2852C83.8916 20.0586 83.9767 19.8704 84.1466 19.7183C84.3167 19.5673 84.5146 19.4918 84.7419 19.4918C84.9693 19.4918 85.1568 19.5673 85.3077 19.7183C85.4589 19.8703 85.5352 20.0585 85.5352 20.2852C85.5352 20.3042 85.53 20.4221 85.5213 20.6391C85.511 20.856 85.4725 21.1396 85.4067 21.4886C85.3407 21.8383 85.2418 22.2347 85.1099 22.6784C84.9763 23.1227 84.7888 23.5712 84.5424 24.0242C84.3166 24.459 84.0147 24.8927 83.6365 25.3269C83.2581 25.7616 82.7861 26.1623 82.2201 26.5312C81.6545 26.8991 80.9845 27.1967 80.2105 27.4233C79.4346 27.6498 78.5285 27.7635 77.4891 27.7635C75.6216 27.7635 74.0806 27.367 72.8725 26.5737C71.8347 25.837 71.0068 24.827 70.3907 23.5426C70.1512 22.976 69.9637 22.3956 69.8352 21.8004C69.7033 21.2058 69.6061 20.621 69.542 20.0446C69.4779 19.4686 69.4395 18.9209 69.4308 18.4011C69.4222 17.8823 69.417 17.424 69.417 17.0274C69.417 16.5937 69.4222 16.112 69.4308 15.5826C69.4395 15.0543 69.4725 14.5068 69.5281 13.94C69.5836 13.3732 69.6756 12.7981 69.8076 12.2123C69.9361 11.6272 70.1235 11.0607 70.3629 10.5122C70.6615 9.8519 71.0155 9.27573 71.4303 8.7845C71.8449 8.29417 72.3155 7.85936 72.8448 7.4818C74.0528 6.6889 75.6008 6.29236 77.4891 6.29236C80.0194 6.29236 82.0033 7.00978 83.4385 8.44522C83.9487 8.97357 84.3445 9.53092 84.6291 10.1157C84.9103 10.7015 85.1186 11.249 85.2504 11.7591C85.3823 12.2686 85.4638 12.6981 85.4935 13.0478C85.5212 13.3975 85.5351 13.5998 85.5351 13.6571V13.6849C85.5351 13.9112 85.4588 14.1004 85.3076 14.2512C85.1568 14.4034 84.9694 14.4779 84.742 14.4779Z" fill="#383B50"/>
<path d="M96.1845 27.7349C93.4667 27.7349 91.4449 26.9045 90.1242 25.2418C88.6872 23.5235 87.9722 20.7858 87.9722 17.0274C87.9722 16.0642 88.0137 15.1859 88.0988 14.393C88.1839 13.5998 88.3018 12.8637 88.4527 12.1837C88.7739 10.7491 89.2737 9.62533 89.9541 8.81304C90.6516 7.96346 91.5404 7.32143 92.6162 6.88662C93.5604 6.50906 94.7509 6.32007 96.1844 6.32007C96.8838 6.32007 97.5347 6.37309 98.1387 6.47641C98.7444 6.58022 99.2911 6.75471 99.7838 7.00029C100.822 7.41605 101.709 8.09536 102.446 9.03956C103.71 10.7767 104.343 13.4401 104.343 17.0274C104.343 18.7464 104.182 20.2946 103.862 21.6725C103.692 22.3337 103.474 22.9471 103.21 23.5139C102.946 24.0807 102.625 24.5908 102.247 25.0439C100.888 26.8382 98.8679 27.7349 96.1845 27.7349ZM96.1845 7.96354C93.8243 7.96354 92.1635 8.58668 91.2003 9.83279C90.1242 11.249 89.5861 13.6476 89.5861 17.0274C89.5861 18.7465 89.732 20.1905 90.0234 21.3609C90.3168 22.5326 90.7472 23.4863 91.3148 24.2222C92.3144 25.469 93.9388 26.0921 96.1845 26.0921C98.3574 26.0921 99.9715 25.3936 101.03 23.9957C101.577 23.2407 101.997 22.2817 102.29 21.1206C102.582 19.9596 102.727 18.5955 102.727 17.0274C102.727 13.8366 102.21 11.5136 101.171 10.0591C100.131 8.66224 98.4703 7.96354 96.1845 7.96354Z" fill="#383B50"/>
<path d="M107.516 27.6498C107.289 27.6498 107.094 27.57 106.934 27.4096C106.775 27.2488 106.695 27.0553 106.695 26.8279V7.22693C106.695 6.8304 106.882 6.56576 107.261 6.43378C107.431 6.39649 107.601 6.40494 107.771 6.46236C107.941 6.5187 108.073 6.62277 108.167 6.77397L116.122 18.4176C116.235 18.6068 116.272 18.8099 116.235 19.0269C116.197 19.2436 116.094 19.4182 115.924 19.55C115.733 19.6827 115.532 19.7306 115.313 19.6925C115.098 19.6542 114.921 19.5319 114.789 19.3235L108.309 9.83283V26.828C108.309 27.0554 108.232 27.2489 108.083 27.4096C107.931 27.5699 107.743 27.6498 107.516 27.6498ZM120.942 27.6498C120.64 27.6498 120.423 27.5273 120.291 27.2818L114.569 18.9539C114.456 18.7657 114.418 18.5617 114.456 18.3446C114.493 18.1278 114.605 17.9621 114.796 17.8492C114.966 17.6983 115.164 17.6417 115.39 17.6794C115.616 17.7173 115.786 17.8399 115.9 18.0471L120.149 24.2222V7.22693C120.149 7.00033 120.228 6.80687 120.39 6.64646C120.55 6.48589 120.734 6.40503 120.942 6.40503C121.169 6.40503 121.362 6.48598 121.523 6.64646C121.683 6.80687 121.763 7.00033 121.763 7.22693V26.8279C121.763 27.2246 121.575 27.4893 121.197 27.6213C121.159 27.6213 121.117 27.6264 121.069 27.6358C121.022 27.6453 120.978 27.6498 120.942 27.6498Z" fill="#383B50"/>
<path d="M138.986 14.478C138.757 14.478 138.559 14.4035 138.389 14.2515C138.219 14.1006 138.135 13.9028 138.135 13.6572C138.135 13.5435 138.125 13.4117 138.108 13.2604C138.07 13.0149 138.012 12.6749 137.938 12.2408C137.672 11.1638 137.191 10.2858 136.492 9.60653C135.397 8.49207 133.811 7.93505 131.733 7.93505C130.242 7.93505 129.065 8.19968 128.206 8.72796C127.347 9.25664 126.702 9.95609 126.266 10.8238C125.831 11.6935 125.558 12.6704 125.445 13.756C125.331 14.8424 125.275 15.9325 125.275 17.0274C125.275 17.4058 125.279 17.8302 125.289 18.3024C125.3 18.7742 125.331 19.2699 125.388 19.7894C125.445 20.3095 125.528 20.8326 125.643 21.3609C125.758 21.8904 125.917 22.3998 126.125 22.8909C127.07 25.044 128.937 26.1198 131.733 26.1198C134.453 26.1198 136.322 25.1566 137.341 23.2311C137.531 22.8726 137.681 22.5134 137.795 22.1542C137.908 21.7958 137.988 21.4799 138.035 21.2057C138.083 20.9324 138.115 20.6253 138.135 20.2852C138.135 20.0585 138.219 19.8704 138.389 19.7183C138.559 19.5673 138.757 19.4918 138.986 19.4918C139.212 19.4918 139.399 19.5674 139.551 19.7183C139.701 19.8703 139.777 20.0585 139.777 20.2852C139.777 20.3041 139.774 20.422 139.763 20.639C139.753 20.856 139.716 21.1396 139.651 21.4886C139.583 21.8384 139.486 22.2348 139.354 22.6784C139.22 23.1226 139.031 23.5713 138.786 24.0241C138.559 24.4589 138.257 24.8926 137.88 25.3268C137.502 25.7615 137.03 26.1622 136.462 26.531C135.897 26.899 135.227 27.1966 134.453 27.4232C133.678 27.6497 132.773 27.7634 131.733 27.7634C129.864 27.7634 128.324 27.3669 127.115 26.5736C126.077 25.8368 125.251 24.8269 124.635 23.5425C124.394 22.9759 124.208 22.3955 124.077 21.8003C123.947 21.2057 123.85 20.6209 123.786 20.0445C123.72 19.4686 123.684 18.9208 123.675 18.4012C123.664 17.8822 123.661 17.424 123.661 17.0274C123.661 16.5936 123.664 16.1119 123.675 15.5825C123.683 15.0541 123.717 14.5066 123.772 13.9398C123.828 13.3731 123.92 12.798 124.05 12.2123C124.18 11.6272 124.366 11.0606 124.607 10.5122C124.904 9.85195 125.258 9.2757 125.674 8.78446C126.087 8.29414 126.559 7.85932 127.087 7.48176C128.295 6.68885 129.845 6.29224 131.733 6.29224C134.264 6.29224 136.247 7.00966 137.681 8.4451C138.191 8.97353 138.588 9.53081 138.871 10.1157C139.154 10.7014 139.362 11.2488 139.494 11.759C139.626 12.2684 139.708 12.698 139.736 13.0477C139.763 13.3974 139.777 13.5996 139.777 13.657V13.6847C139.777 13.9111 139.701 14.1002 139.551 14.2511C139.399 14.4035 139.211 14.478 138.986 14.478Z" fill="#383B50"/>
<path d="M143.773 16.8009C143.546 16.8009 143.356 16.7211 143.205 16.5607C143.054 16.4002 142.978 16.2067 142.978 15.9802V7.2121C142.978 6.98219 143.054 6.78964 143.205 6.63619C143.356 6.4825 143.545 6.40503 143.773 6.40503H155.612C155.838 6.40503 156.028 6.4825 156.178 6.63619C156.329 6.78972 156.406 6.98219 156.406 7.2121C156.406 7.4431 156.329 7.64012 156.178 7.80317C156.028 7.96697 155.838 8.04867 155.612 8.04867H144.594V15.9801C144.594 16.2066 144.512 16.4002 144.353 16.5606C144.193 16.7211 143.999 16.8009 143.773 16.8009ZM155.613 27.6213H143.773C143.546 27.6213 143.356 27.5455 143.205 27.3948C143.054 27.2426 142.978 27.0537 142.978 26.8265V15.5845C142.978 15.3579 143.054 15.1636 143.205 15.0029C143.356 14.8424 143.546 14.7617 143.773 14.7617H152.753C152.978 14.7617 153.172 14.8431 153.332 15.0063C153.492 15.1705 153.572 15.3666 153.572 15.5975C153.572 15.8092 153.492 15.9965 153.332 16.1597C153.172 16.3228 152.978 16.4044 152.753 16.4044H144.594V25.9783H155.613C155.838 25.9783 156.028 26.06 156.178 26.224C156.33 26.387 156.406 26.5842 156.406 26.815C156.406 27.0449 156.33 27.2377 156.178 27.3913C156.028 27.5449 155.838 27.6213 155.613 27.6213Z" fill="#383B50"/>
<path d="M171.591 8.44529C172.891 9.72976 173.542 11.4851 173.542 13.7136C173.542 14.6578 173.436 15.4891 173.221 16.2067C173.009 16.9242 172.735 17.5422 172.4 18.0619C172.065 18.5809 171.69 19.0102 171.277 19.3504C170.861 19.6907 170.455 19.964 170.059 20.1716C169.623 20.399 169.203 20.5783 168.797 20.7102C168.391 20.8421 168.028 20.9368 167.707 20.9934C167.386 21.0497 167.122 21.0835 166.914 21.0923C166.706 21.1025 166.591 21.1071 166.574 21.1071H165.724C165.515 21.1071 165.331 21.0262 165.172 20.8657C165.012 20.7061 164.932 20.5212 164.932 20.3138C164.932 20.0682 165.012 19.8652 165.172 19.7048C165.331 19.5441 165.515 19.4634 165.724 19.4634H166.574C166.914 19.4451 167.211 19.4121 167.466 19.3646C167.721 19.3175 168.014 19.2464 168.344 19.1518C168.674 19.0582 169.011 18.9158 169.351 18.7275C171.069 17.8025 171.926 16.1312 171.926 13.7136C171.926 11.9573 171.447 10.5793 170.482 9.57781C169.823 8.95467 168.99 8.50196 167.99 8.21811C167.594 8.12432 167.263 8.07229 166.999 8.06284C166.734 8.05307 166.591 8.04884 166.574 8.04884H160.116V19.4634H165.807C166.034 19.4634 166.227 19.5441 166.388 19.7049C166.548 19.8654 166.63 20.0683 166.63 20.3138C166.63 20.5213 166.548 20.7062 166.388 20.8658C166.227 21.0263 166.035 21.1072 165.807 21.1072H160.116V26.8567C160.116 27.065 160.035 27.249 159.875 27.4098C159.715 27.5702 159.521 27.65 159.295 27.65C159.068 27.65 158.879 27.5701 158.728 27.4098C158.577 27.249 158.5 27.065 158.5 26.8567V7.19844C158.5 6.99089 158.577 6.80687 158.728 6.64646C158.879 6.48589 159.066 6.40503 159.292 6.40503H166.56C166.596 6.40503 166.786 6.41994 167.124 6.4477C167.463 6.47653 167.879 6.55185 168.369 6.67414C168.858 6.79734 169.391 6.99611 169.965 7.26952C170.541 7.5436 171.083 7.935 171.591 8.44529Z" fill="#383B50"/>
<path d="M189.178 8.04867H175.752C175.525 8.04867 175.332 7.96689 175.17 7.80318C175.009 7.64012 174.929 7.45329 174.929 7.2416C174.929 7.01085 175.009 6.81399 175.17 6.65061C175.332 6.48755 175.524 6.40503 175.752 6.40503H189.178C189.403 6.40503 189.598 6.48763 189.757 6.65061C189.919 6.81407 190 7.01093 190 7.2416C190 7.45329 189.919 7.64012 189.757 7.80318C189.598 7.96689 189.403 8.04867 189.178 8.04867ZM182.423 27.6498C182.18 27.6498 181.986 27.57 181.837 27.4096C181.689 27.2488 181.614 27.0553 181.614 26.828V7.99664C181.614 7.78901 181.689 7.60507 181.837 7.44467C181.986 7.28427 182.18 7.20365 182.423 7.20365C182.645 7.20365 182.836 7.28427 182.993 7.44467C183.15 7.60516 183.228 7.78901 183.228 7.99664V26.828C183.228 27.0553 183.15 27.2488 182.993 27.4096C182.836 27.57 182.645 27.6498 182.423 27.6498Z" fill="#383B50"/>
<path d="M74.119 56.5455H72.1162V38.7181H74.119V56.5455Z" fill="#383B50"/>
<path d="M94.4936 56.5456H92.7165L82.2409 41.8908C82.1906 41.8247 82.1455 41.7449 82.1037 41.6547C82.0622 41.5643 82.0291 41.4742 82.0048 41.3802C81.9701 41.2833 81.9459 41.179 81.9285 41.0716V56.5456H79.9258V38.7181H81.3452C82.05 38.7181 82.5567 38.9264 82.8624 39.3393L92.1057 52.3421C92.2219 52.5085 92.3106 52.6891 92.373 52.8868C92.4353 53.0883 92.4736 53.248 92.4909 53.373V38.7182H94.4937V56.5456H94.4936Z" fill="#383B50"/>
<path d="M109.286 46.9061V48.9196H101.86V56.5455H99.8428V38.7181H110.665V40.7347H101.86V46.9062H109.286V46.9061Z" fill="#383B50"/>
<path d="M113.516 47.6249C113.516 46.7881 113.623 45.9828 113.839 45.2054C114.054 44.4314 114.363 43.7058 114.76 43.0289C115.158 42.3521 115.633 41.7411 116.185 41.1892C116.735 40.6373 117.35 40.162 118.025 39.7626C118.701 39.3669 119.427 39.0581 120.203 38.8429C120.978 38.6279 121.784 38.5199 122.622 38.5199C123.46 38.5199 124.269 38.6279 125.046 38.8429C125.828 39.0581 126.553 39.3668 127.225 39.7626C127.896 40.162 128.511 40.6373 129.066 41.1892C129.621 41.7411 130.099 42.3521 130.496 43.0289C130.895 43.7057 131.201 44.4313 131.416 45.2054C131.633 45.9828 131.741 46.7881 131.741 47.6249C131.741 48.8881 131.503 50.0719 131.026 51.1792C130.548 52.2865 129.897 53.2513 129.073 54.0773C128.247 54.8999 127.282 55.5526 126.175 56.028C125.068 56.5071 123.884 56.743 122.622 56.743C121.361 56.743 120.18 56.5071 119.076 56.028C117.973 55.5526 117.009 54.8999 116.185 54.0773C115.359 53.2513 114.708 52.2865 114.231 51.1792C113.755 50.0719 113.516 48.8881 113.516 47.6249ZM115.519 47.6249C115.519 48.2807 115.604 48.9125 115.774 49.5165C115.944 50.1239 116.181 50.6895 116.489 51.2137C116.796 51.7414 117.167 52.2204 117.601 52.6508C118.038 53.0847 118.517 53.4526 119.038 53.758C119.562 54.067 120.125 54.303 120.732 54.4733C121.336 54.6433 121.968 54.73 122.622 54.73C123.276 54.73 123.908 54.6433 124.512 54.4733C125.118 54.303 125.685 54.067 126.211 53.758C126.737 53.4525 127.216 53.0847 127.648 52.6508C128.079 52.2204 128.448 51.7413 128.756 51.2137C129.063 50.6895 129.3 50.1239 129.471 49.5165C129.641 48.9124 129.726 48.2807 129.726 47.6249C129.726 46.6457 129.538 45.7261 129.167 44.8652C128.792 44.0008 128.285 43.2477 127.648 42.6057C127.01 41.9633 126.256 41.4569 125.39 41.0818C124.523 40.7104 123.599 40.523 122.622 40.523C121.644 40.523 120.722 40.7104 119.861 41.0818C118.997 41.4569 118.245 41.9633 117.602 42.6057C116.959 43.2477 116.452 44.0009 116.077 44.8652C115.706 45.7261 115.519 46.6457 115.519 47.6249Z" fill="#383B50"/>
<path d="M145.761 48.5585C145.452 49.2634 145.012 50.2768 144.435 51.5993C143.859 52.9251 143.141 54.5738 142.276 56.5455H140.423L132.462 38.7181H133.507C133.856 38.7181 134.175 38.8119 134.465 38.9991C134.754 39.1868 134.963 39.4332 135.088 39.7387L141.12 53.137C141.195 53.3103 141.249 53.5047 141.282 53.7234C141.315 53.9386 141.335 54.0949 141.344 54.1955C141.344 54.1436 141.349 54.0774 141.363 53.9941C141.376 53.9143 141.389 53.8208 141.405 53.7234C141.422 53.6227 141.447 53.5223 141.474 53.4183C141.504 53.3139 141.539 53.2202 141.58 53.137L147.427 39.7387C147.559 39.4332 147.769 39.1868 148.055 38.9991C148.342 38.812 148.66 38.7181 149.006 38.7181H150.065C149.468 40.0718 148.881 41.4152 148.305 42.748C147.727 44.0844 147.141 45.4278 146.544 46.7816L149.381 53.1371C149.413 53.2203 149.444 53.314 149.473 53.4184C149.503 53.5224 149.525 53.6228 149.541 53.7235C149.558 53.8209 149.572 53.9144 149.586 54.0014C149.598 54.0881 149.609 54.1573 149.618 54.2061C149.618 54.0984 149.638 53.9388 149.68 53.7236C149.722 53.5049 149.779 53.3105 149.853 53.1372L155.7 39.7389C155.832 39.4333 156.039 39.187 156.322 38.9993C156.605 38.8122 156.919 38.7183 157.268 38.7183H158.324L150.549 56.5457H148.684L146.296 51.1724C146.129 50.8148 145.983 50.4643 145.86 50.1134C145.735 49.7667 145.674 49.4506 145.674 49.1695C145.674 49.0446 145.681 48.9336 145.699 48.8329C145.715 48.732 145.735 48.6419 145.761 48.5585Z" fill="#383B50"/>
<path d="M164.21 38.7181H166.076C166.241 39.0997 166.461 39.6032 166.734 40.2314C167.008 40.8562 167.317 41.5642 167.661 42.3595C168.006 43.1509 168.376 43.994 168.768 44.8964C169.164 45.7959 169.563 46.7084 169.969 47.6319C170.375 48.5586 170.776 49.4714 171.17 50.3741C171.564 51.28 171.93 52.1269 172.27 52.915C172.61 53.7026 172.917 54.4108 173.192 55.0391C173.464 55.6709 173.684 56.1742 173.851 56.5457H172.794C172.445 56.5457 172.131 56.4553 171.853 56.2713C171.576 56.0907 171.368 55.8409 171.225 55.525L169.87 52.4531H160.403L159.071 55.525C158.931 55.8409 158.719 56.0907 158.438 56.2713C158.155 56.4553 157.841 56.5457 157.492 56.5457H156.435L164.21 38.7181ZM161.286 50.4364H169L165.38 42.1406C165.297 41.9671 165.238 41.7725 165.205 41.5608C165.172 41.349 165.151 41.193 165.142 41.0958C165.142 41.1444 165.137 41.2101 165.123 41.2936C165.113 41.3768 165.095 41.4671 165.075 41.568C165.054 41.6684 165.03 41.7657 165 41.8665C164.97 41.9671 164.939 42.0574 164.906 42.1406L161.286 50.4364Z" fill="#383B50"/>
<path d="M181.651 56.5456H179.648V49.0585C179.648 48.8502 179.629 48.6662 179.592 48.5031C179.556 48.3397 179.504 48.1872 179.436 48.0414C179.37 47.8991 179.285 47.7535 179.181 47.6076C179.077 47.4616 178.964 47.302 178.839 47.1286L172.631 38.7182H173.851C174.762 38.7182 175.443 39.0687 175.891 39.7628L180.42 45.8719C180.51 46.0213 180.57 46.1532 180.594 46.271C180.618 46.3857 180.635 46.4655 180.642 46.5071C180.642 46.4725 180.658 46.3961 180.687 46.2782C180.715 46.1565 180.776 46.0212 180.868 45.8719L185.42 39.7628C185.635 39.4158 185.915 39.1556 186.26 38.9819C186.604 38.8048 187.001 38.7181 187.449 38.7181H188.68L182.46 47.1285C182.218 47.4444 182.024 47.7428 181.874 48.0309C181.725 48.3156 181.651 48.6593 181.651 49.0584V56.5456H181.651Z" fill="#383B50"/>
<defs>
<radialGradient id="paint0_radial_715_2026" cx="0" cy="0" r="1" gradientUnits="userSpaceOnUse" gradientTransform="translate(6.02742 22.8522) scale(13.8262)">
<stop offset="0.0054" stop-color="#28B282"/>
<stop offset="0.5054" stop-color="#5FC197"/>
<stop offset="1" stop-color="#65BE6B"/>
</radialGradient>
<linearGradient id="paint1_linear_715_2026" x1="24.4983" y1="35.2523" x2="0.771252" y2="53.8255" gradientUnits="userSpaceOnUse">
<stop offset="0.0649" stop-color="#DB3181"/>
<stop offset="0.5" stop-color="#921F5F"/>
</linearGradient>
<linearGradient id="paint2_linear_715_2026" x1="0.256325" y1="41.7849" x2="74.1066" y2="41.7849" gradientUnits="userSpaceOnUse">
<stop offset="0.25" stop-color="#28B78B"/>
<stop offset="0.5591" stop-color="#0B899B"/>
<stop offset="1" stop-color="#2DABE2"/>
</linearGradient>
<linearGradient id="paint3_linear_715_2026" x1="16.7942" y1="9.86805" x2="48.0705" y2="3.8074" gradientUnits="userSpaceOnUse">
<stop offset="0.0054" stop-color="#EA3F7D"/>
<stop offset="0.3387" stop-color="#EF4A6D"/>
<stop offset="0.7581" stop-color="#F1694B"/>
<stop offset="1" stop-color="#F6852D"/>
</linearGradient>
<linearGradient id="paint4_linear_715_2026" x1="1.7662" y1="35.0224" x2="37.0633" y2="12.1447" gradientUnits="userSpaceOnUse">
<stop offset="0.0054" stop-color="#1B79B8"/>
<stop offset="0.3387" stop-color="#266CB5"/>
<stop offset="0.7581" stop-color="#1091A9"/>
<stop offset="1" stop-color="#00A49C"/>
</linearGradient>
<linearGradient id="paint5_linear_715_2026" x1="20.7722" y1="21.7331" x2="35.9696" y2="3.81227" gradientUnits="userSpaceOnUse">
<stop offset="0.0054" stop-color="#1B82B4"/>
<stop offset="0.5" stop-color="#08A79B"/>
<stop offset="1" stop-color="#3EB17B"/>
</linearGradient>
<linearGradient id="paint6_linear_715_2026" x1="6.0385" y1="41.6306" x2="62.6148" y2="41.6306" gradientUnits="userSpaceOnUse">
<stop stop-color="#ED2183"/>
<stop offset="0.4731" stop-color="#F3735F"/>
<stop offset="0.6022" stop-color="#F18935"/>
<stop offset="0.8333" stop-color="#F6951E"/>
<stop offset="1" stop-color="#F8B121"/>
</linearGradient>
</defs>
</svg>
