<svg width="50" height="11" viewBox="0 0 50 11" fill="none" xmlns="http://www.w3.org/2000/svg">
<path d="M40.1953 0.143997H41.8873V8.544H40.1953V0.143997Z" fill="black" fill-opacity="0.5"/>
<path d="M36.1891 8.544C35.1651 8.544 34.4291 8.32 33.9811 7.872C33.5411 7.424 33.3211 6.776 33.3211 5.928V0.143997H35.0131V5.928C35.0131 6.368 35.1091 6.696 35.3011 6.912C35.4931 7.12 35.7891 7.224 36.1891 7.224H38.8771V8.544H36.1891Z" fill="black" fill-opacity="0.5"/>
<path d="M30.3343 6.588H27.0463L26.4823 8.544H24.7903L26.8423 1.848C26.9863 1.368 27.1383 0.996 27.2983 0.732C27.4583 0.468 27.6463 0.28 27.8623 0.168C28.0863 0.0559998 28.3623 0 28.6903 0C29.0183 0 29.2903 0.0559998 29.5063 0.168C29.7223 0.28 29.9103 0.468 30.0703 0.732C30.2383 0.996 30.3943 1.368 30.5383 1.848L32.5903 8.544H30.8983L30.3343 6.588ZM29.9623 5.328L28.9543 1.872C28.8983 1.664 28.8103 1.56 28.6903 1.56C28.5703 1.56 28.4823 1.664 28.4263 1.872L27.4183 5.328H29.9623Z" fill="black" fill-opacity="0.5"/>
<path d="M15.5625 0.143997H16.4385C16.8785 0.143997 17.2305 0.203997 17.4945 0.323997C17.7585 0.443997 17.9865 0.635998 18.1785 0.899998C18.3705 1.156 18.5945 1.544 18.8505 2.064L19.5465 3.468L20.2425 2.064C20.4985 1.544 20.7225 1.156 20.9145 0.899998C21.1065 0.635998 21.3345 0.443997 21.5985 0.323997C21.8625 0.203997 22.2145 0.143997 22.6545 0.143997H23.5305V8.544H21.9945V1.908C21.8985 1.908 21.8185 1.952 21.7545 2.04C21.6905 2.128 21.5945 2.284 21.4665 2.508L19.5465 6.072L17.6265 2.508C17.4985 2.284 17.4025 2.128 17.3385 2.04C17.2745 1.952 17.1945 1.904 17.0985 1.896V8.544H15.5625V0.143997Z" fill="black" fill-opacity="0.5"/>
<path d="M11.2876 8.544C10.2236 8.544 9.45959 8.32 8.99559 7.872C8.53159 7.424 8.29959 6.776 8.29959 5.928V2.76C8.29959 1.912 8.53159 1.264 8.99559 0.815997C9.45959 0.367997 10.2236 0.143997 11.2876 0.143997H14.0956V1.464H11.2876C10.8476 1.464 10.5196 1.568 10.3036 1.776C10.0956 1.984 9.99159 2.312 9.99159 2.76V3.684H13.5676V5.004H9.99159V5.928C9.99159 6.368 10.0956 6.696 10.3036 6.912C10.5196 7.12 10.8476 7.224 11.2876 7.224H14.1196V8.544H11.2876Z" fill="black" fill-opacity="0.5"/>
<path d="M0 0.143997H1.692V3.672H4.956V0.143997H6.648V8.544H4.956V4.992H1.692V8.544H0V0.143997Z" fill="black" fill-opacity="0.5"/>
<path d="M49.8133 7.544C49.8133 9.20085 48.4478 10.544 46.7633 10.544C45.0789 10.544 43.7133 9.20085 43.7133 7.544C43.7133 5.88714 45.0789 4.544 46.7633 4.544C48.4478 4.544 49.8133 5.88714 49.8133 7.544Z" fill="#FF1E00" fill-opacity="0.23"/>
<path fill-rule="evenodd" clip-rule="evenodd" d="M46.7633 4.644C45.1325 4.644 43.8133 5.94393 43.8133 7.544C43.8133 9.14407 45.1325 10.444 46.7633 10.444C48.3941 10.444 49.7133 9.14407 49.7133 7.544C49.7133 5.94393 48.3941 4.644 46.7633 4.644ZM43.6133 7.544C43.6133 5.83037 45.0252 4.444 46.7633 4.444C48.5015 4.444 49.9133 5.83037 49.9133 7.544C49.9133 9.25763 48.5015 10.644 46.7633 10.644C45.0252 10.644 43.6133 9.25763 43.6133 7.544Z" fill="black"/>
<path d="M49.3558 9.2C49.2732 9.2 49.1958 9.18134 49.1238 9.144C49.0518 9.10667 48.9852 9.05867 48.9238 9C48.8652 8.944 48.8092 8.88667 48.7558 8.828C48.7505 8.82 48.7398 8.808 48.7238 8.792L48.7158 8.788L48.7038 8.78C48.6825 8.76667 48.6812 8.75067 48.6998 8.732L48.6918 8.736C48.6812 8.736 48.6692 8.73067 48.6558 8.72C48.6452 8.712 48.6412 8.70267 48.6438 8.692L48.6478 8.688V8.68C48.6478 8.67734 48.6478 8.67467 48.6478 8.672C48.6505 8.672 48.6518 8.672 48.6518 8.672H48.6438C48.6358 8.68 48.6305 8.684 48.6278 8.684C48.6172 8.684 48.6118 8.67734 48.6118 8.664H48.6078C48.5998 8.664 48.5958 8.65867 48.5958 8.648C48.5958 8.63734 48.5972 8.63067 48.5998 8.628C48.5998 8.62 48.5958 8.61467 48.5878 8.612C48.5825 8.60934 48.5772 8.60667 48.5718 8.604C48.5665 8.604 48.5612 8.60134 48.5558 8.596C48.5532 8.59067 48.5398 8.57334 48.5158 8.544C48.4945 8.51734 48.4732 8.49067 48.4518 8.464C48.4305 8.43467 48.4198 8.41867 48.4198 8.416V8.404H48.4158C48.4078 8.404 48.4038 8.40267 48.4038 8.4C48.3878 8.38134 48.3718 8.36134 48.3558 8.34C48.3425 8.31867 48.3292 8.29867 48.3158 8.28C48.2732 8.22134 48.2385 8.15867 48.2118 8.092C48.1852 8.02534 48.1505 7.96267 48.1078 7.904C48.0892 7.88 48.0638 7.84667 48.0318 7.804C48.0025 7.76134 47.9718 7.74 47.9398 7.74C47.9345 7.74 47.9252 7.74134 47.9118 7.744C47.9012 7.74667 47.8945 7.756 47.8918 7.772L47.8758 7.76H47.8638L47.8598 7.732H47.8718C47.8905 7.71067 47.9185 7.69334 47.9558 7.68C47.9958 7.66667 48.0292 7.66 48.0558 7.66C48.0878 7.66 48.1145 7.67067 48.1358 7.692C48.1572 7.71067 48.1825 7.72 48.2118 7.72C48.2172 7.72 48.2265 7.72 48.2398 7.72C48.2558 7.71734 48.2652 7.712 48.2678 7.704C48.2892 7.70667 48.3158 7.704 48.3478 7.696C48.3798 7.688 48.4065 7.68267 48.4278 7.68C48.4572 7.66134 48.4878 7.648 48.5198 7.64C48.5545 7.632 48.5878 7.62267 48.6198 7.612C48.6652 7.59867 48.7252 7.57734 48.7998 7.548C48.8772 7.516 48.9545 7.48 49.0318 7.44C49.1118 7.39734 49.1785 7.35334 49.2318 7.308C49.2878 7.26 49.3158 7.212 49.3158 7.164C49.3158 7.13734 49.3038 7.11334 49.2798 7.092C49.2585 7.07067 49.2358 7.052 49.2118 7.036C49.1212 6.97734 49.0212 6.94134 48.9118 6.928C48.8025 6.91467 48.6932 6.908 48.5838 6.908H48.3558C48.2838 6.908 48.2132 6.90934 48.1438 6.912C48.0745 6.912 48.0052 6.91734 47.9358 6.928C47.7972 6.94667 47.6585 6.96667 47.5198 6.988C47.3838 7.00667 47.2492 7.04134 47.1158 7.092C47.0972 7.1 47.0652 7.11467 47.0198 7.136C46.9772 7.15467 46.9572 7.17467 46.9598 7.196C46.9598 7.20667 46.9692 7.21467 46.9878 7.22C47.0092 7.22267 47.0332 7.22667 47.0598 7.232C47.0892 7.23467 47.1172 7.236 47.1438 7.236C47.1705 7.236 47.1905 7.236 47.2038 7.236L47.2078 7.26H47.1918C47.1758 7.27334 47.1558 7.28 47.1318 7.28C47.1105 7.27734 47.0918 7.276 47.0758 7.276C47.0572 7.276 47.0385 7.27734 47.0198 7.28C47.0012 7.28267 46.9812 7.284 46.9598 7.284C46.9252 7.284 46.8865 7.272 46.8438 7.248C46.8038 7.22134 46.7812 7.18667 46.7758 7.144C46.7758 7.12534 46.7932 7.10134 46.8278 7.072C46.8625 7.04267 46.8998 7.016 46.9398 6.992C46.9798 6.968 47.0078 6.956 47.0238 6.956C47.0238 6.956 47.0252 6.956 47.0278 6.956C47.0305 6.956 47.0332 6.95734 47.0358 6.96H47.0398L47.1158 6.924L47.1198 6.932C47.1758 6.916 47.2318 6.9 47.2878 6.884C47.3465 6.868 47.4052 6.85867 47.4638 6.856C47.4692 6.856 47.4758 6.856 47.4838 6.856C47.4918 6.856 47.4972 6.85334 47.4998 6.848C47.5692 6.83734 47.6358 6.82934 47.6998 6.824C47.7638 6.816 47.8292 6.80934 47.8958 6.804C47.9172 6.80134 47.9385 6.79867 47.9598 6.796C47.9812 6.79067 48.0012 6.788 48.0198 6.788C48.0705 6.788 48.1212 6.78934 48.1718 6.792C48.2252 6.792 48.2772 6.79334 48.3278 6.796C48.4345 6.796 48.5505 6.8 48.6758 6.808C48.8038 6.816 48.9265 6.83867 49.0438 6.876C49.1612 6.91067 49.2585 6.97334 49.3358 7.064C49.3625 7.09334 49.3812 7.124 49.3918 7.156C49.4052 7.188 49.4132 7.224 49.4158 7.264C49.4158 7.272 49.4158 7.28 49.4158 7.288C49.4158 7.296 49.4172 7.304 49.4198 7.312C49.4252 7.36267 49.4092 7.41067 49.3718 7.456C49.3345 7.50134 49.2932 7.53467 49.2478 7.556C49.2212 7.56667 49.1972 7.58 49.1758 7.596C49.1545 7.612 49.1318 7.624 49.1078 7.632C49.0758 7.64267 49.0412 7.65334 49.0038 7.664C48.9692 7.672 48.9358 7.68134 48.9038 7.692C48.8078 7.72667 48.7052 7.752 48.5958 7.768C48.4892 7.78134 48.3812 7.788 48.2718 7.788C48.2798 7.812 48.2945 7.844 48.3158 7.884C48.3398 7.92134 48.3638 7.95867 48.3878 7.996C48.4145 8.03067 48.4332 8.05734 48.4438 8.076C48.4812 8.12667 48.5292 8.19467 48.5878 8.28C48.6465 8.36534 48.7118 8.456 48.7838 8.552C48.8585 8.65067 48.9345 8.74267 49.0118 8.828C49.0918 8.916 49.1692 8.98667 49.2438 9.04C49.3212 9.096 49.3918 9.124 49.4558 9.124C49.5012 9.124 49.5412 9.10667 49.5758 9.072C49.5998 9.048 49.6172 9 49.6278 8.928C49.6412 8.856 49.6478 8.78667 49.6478 8.72C49.6478 8.66667 49.6438 8.624 49.6358 8.592H49.6638V8.6H49.6678C49.6972 8.64534 49.7132 8.69067 49.7158 8.736C49.7185 8.77067 49.7225 8.804 49.7278 8.836C49.7358 8.868 49.7398 8.90134 49.7398 8.936C49.7398 8.97067 49.7345 9.00267 49.7238 9.032C49.7105 9.064 49.6798 9.092 49.6318 9.116C49.5865 9.14267 49.5372 9.16267 49.4838 9.176C49.4305 9.192 49.3878 9.2 49.3558 9.2ZM47.5918 8.672C47.5492 8.672 47.5025 8.65867 47.4518 8.632C47.4038 8.608 47.3612 8.57734 47.3238 8.54C47.2865 8.50267 47.2665 8.464 47.2638 8.424C47.2585 8.37067 47.2652 8.32 47.2838 8.272C47.3025 8.22134 47.3225 8.176 47.3438 8.136C47.3545 8.11467 47.3652 8.09467 47.3758 8.076C47.3865 8.05734 47.3958 8.04 47.4038 8.024C47.4225 7.99734 47.4318 7.97467 47.4318 7.956C47.4372 7.95067 47.4452 7.944 47.4558 7.936C47.4665 7.92534 47.4692 7.91734 47.4638 7.912C47.5358 7.79467 47.6105 7.68267 47.6878 7.576C47.6958 7.56534 47.7025 7.55467 47.7078 7.544C47.7158 7.53067 47.7238 7.51867 47.7318 7.508C47.7505 7.484 47.7692 7.46134 47.7878 7.44C47.8092 7.416 47.8292 7.39334 47.8478 7.372C47.8772 7.33467 47.9052 7.29734 47.9318 7.26C47.9585 7.22 47.9865 7.18267 48.0158 7.148C48.0292 7.132 48.0492 7.11067 48.0758 7.084C48.1025 7.05734 48.1158 7.03334 48.1158 7.012C48.1158 7.004 48.1118 6.996 48.1038 6.988L48.0958 6.98C48.0878 6.972 48.0838 6.96134 48.0838 6.948L48.0958 6.936C48.1118 6.93867 48.1425 6.94534 48.1878 6.956C48.2332 6.96667 48.2758 6.984 48.3158 7.008C48.3558 7.02934 48.3758 7.05734 48.3758 7.092C48.3758 7.11867 48.3612 7.14667 48.3318 7.176C48.3025 7.20534 48.2705 7.232 48.2358 7.256C48.2038 7.28 48.1785 7.30267 48.1598 7.324C48.0958 7.39334 48.0225 7.47467 47.9398 7.568C47.8598 7.66134 47.7825 7.76134 47.7078 7.868C47.6332 7.972 47.5732 8.07867 47.5278 8.188C47.4825 8.29467 47.4638 8.39734 47.4718 8.496C47.4745 8.52 47.4812 8.54267 47.4918 8.564C47.5025 8.588 47.5212 8.60134 47.5478 8.604C47.5612 8.596 47.5825 8.58267 47.6118 8.564C47.6412 8.54534 47.6705 8.52534 47.6998 8.504C47.7318 8.48267 47.7598 8.46267 47.7838 8.444C47.8105 8.42534 47.8238 8.41067 47.8238 8.4H47.8558C47.8452 8.42934 47.8332 8.45067 47.8198 8.464C47.8092 8.47734 47.7945 8.496 47.7758 8.52C47.7518 8.55467 47.7265 8.588 47.6998 8.62C47.6732 8.65467 47.6372 8.672 47.5918 8.672Z" fill="black"/>
<path d="M44.956 8.676C44.9293 8.67867 44.9013 8.668 44.872 8.644C44.8453 8.62 44.8253 8.6 44.812 8.584C44.7693 8.53867 44.7413 8.48 44.728 8.408C44.7173 8.33334 44.712 8.27334 44.712 8.228C44.712 8.14267 44.728 8.06134 44.76 7.984C44.792 7.904 44.824 7.824 44.856 7.744C44.7653 7.75734 44.6747 7.772 44.584 7.788C44.496 7.804 44.4053 7.812 44.312 7.812C44.2373 7.812 44.1587 7.80134 44.076 7.78C43.9933 7.756 43.9373 7.70267 43.908 7.62C43.9053 7.61467 43.904 7.60667 43.904 7.596C43.904 7.58 43.9093 7.56534 43.92 7.552C43.928 7.536 43.9307 7.52267 43.928 7.512C43.952 7.512 43.964 7.504 43.964 7.488C43.9933 7.46934 44.0333 7.448 44.084 7.424C44.1347 7.39734 44.1867 7.37467 44.24 7.356C44.296 7.33467 44.3413 7.324 44.376 7.324C44.416 7.29734 44.464 7.284 44.52 7.284C44.5413 7.27867 44.5613 7.27734 44.58 7.28C44.6013 7.28 44.6227 7.28 44.644 7.28C44.66 7.27467 44.676 7.272 44.692 7.272C44.7107 7.26934 44.7293 7.268 44.748 7.268C44.756 7.26534 44.7667 7.264 44.78 7.264C44.7907 7.264 44.8013 7.26534 44.812 7.268C44.8253 7.268 44.8373 7.268 44.848 7.268L44.86 7.28V7.304H44.856V7.308C44.8053 7.31067 44.7587 7.31867 44.716 7.332C44.6733 7.34267 44.6267 7.356 44.576 7.372C44.552 7.38 44.516 7.392 44.468 7.408C44.4227 7.42134 44.3733 7.44 44.32 7.464C44.2693 7.48534 44.2253 7.51067 44.188 7.54C44.1533 7.56934 44.136 7.60134 44.136 7.636C44.136 7.65734 44.152 7.67067 44.184 7.676C44.216 7.67867 44.24 7.68 44.256 7.68C44.3093 7.68 44.3507 7.68 44.38 7.68C44.4093 7.67734 44.4387 7.67467 44.468 7.672C44.5 7.66667 44.5413 7.66 44.592 7.652L44.908 7.604C44.94 7.56667 44.9653 7.52667 44.984 7.484C45.0053 7.43867 45.0293 7.39467 45.056 7.352C45.128 7.23734 45.204 7.12534 45.284 7.016C45.364 6.90667 45.4533 6.80267 45.552 6.704C45.5893 6.66667 45.6253 6.632 45.66 6.6C45.6947 6.56534 45.7373 6.54 45.788 6.524C45.8093 6.52934 45.8333 6.54 45.86 6.556C45.8867 6.56934 45.9067 6.58667 45.92 6.608C45.9333 6.624 45.94 6.644 45.94 6.668C45.94 6.68667 45.9347 6.704 45.924 6.72C45.9133 6.736 45.9013 6.75067 45.888 6.764C45.8827 6.76934 45.872 6.78134 45.856 6.8C45.84 6.816 45.8227 6.832 45.804 6.848C45.788 6.864 45.7773 6.872 45.772 6.872H45.752V6.848C45.7253 6.86134 45.7027 6.88 45.684 6.904C45.6653 6.928 45.6453 6.94934 45.624 6.968C45.608 6.98134 45.592 6.99467 45.576 7.008C45.56 7.01867 45.544 7.03067 45.528 7.044C45.5173 7.052 45.4933 7.08 45.456 7.128C45.4213 7.17334 45.3813 7.22667 45.336 7.288C45.2933 7.34667 45.2533 7.40267 45.216 7.456C45.1813 7.50667 45.16 7.54267 45.152 7.564C45.2053 7.55867 45.2493 7.552 45.284 7.544C45.3187 7.536 45.3653 7.528 45.424 7.52C45.4987 7.512 45.5733 7.50534 45.648 7.5C45.7253 7.492 45.8013 7.48267 45.876 7.472L45.956 7.46C45.9773 7.45467 46.012 7.45067 46.06 7.448C46.108 7.44534 46.14 7.43867 46.156 7.428C46.1747 7.39867 46.204 7.35334 46.244 7.292C46.284 7.228 46.3307 7.15867 46.384 7.084C46.4373 7.00667 46.4907 6.93334 46.544 6.864C46.6 6.792 46.652 6.732 46.7 6.684C46.748 6.63334 46.7853 6.604 46.812 6.596C46.82 6.59067 46.8307 6.58534 46.844 6.58C46.8573 6.57467 46.868 6.572 46.876 6.572C46.9 6.572 46.932 6.58267 46.972 6.604C47.012 6.62267 47.036 6.64667 47.044 6.676C47.0093 6.692 46.976 6.70667 46.944 6.72C46.9253 6.73067 46.9107 6.74267 46.9 6.756C46.8893 6.76934 46.872 6.77734 46.848 6.78V6.788H46.836C46.8307 6.79867 46.8227 6.80534 46.812 6.808L46.804 6.816C46.8013 6.81867 46.8 6.82 46.8 6.82H46.804L46.816 6.844H46.8C46.7253 6.932 46.656 7.02534 46.592 7.124C46.528 7.22 46.4747 7.32 46.432 7.424V7.428C46.432 7.43334 46.4307 7.436 46.428 7.436V7.444C46.484 7.44667 46.544 7.456 46.608 7.472C46.672 7.48534 46.732 7.508 46.788 7.54C46.844 7.56934 46.8853 7.612 46.912 7.668C46.9173 7.67867 46.9213 7.68934 46.924 7.7C46.9267 7.708 46.928 7.71867 46.928 7.732C46.928 7.75067 46.92 7.772 46.904 7.796C46.8907 7.81734 46.8707 7.828 46.844 7.828L46.812 7.78C46.8227 7.76667 46.8307 7.75334 46.836 7.74C46.844 7.724 46.848 7.71067 46.848 7.7C46.848 7.66267 46.8307 7.63467 46.796 7.616C46.7613 7.59734 46.7213 7.584 46.676 7.576C46.6333 7.568 46.5947 7.564 46.56 7.564C46.5227 7.564 46.48 7.56934 46.432 7.58C46.384 7.588 46.3493 7.60667 46.328 7.636C46.296 7.67867 46.268 7.74134 46.244 7.824C46.2227 7.90667 46.2067 7.99067 46.196 8.076C46.1853 8.16134 46.1813 8.23334 46.184 8.292C46.1867 8.308 46.1893 8.33067 46.192 8.36C46.1973 8.38934 46.2067 8.41734 46.22 8.444C46.2333 8.468 46.252 8.48 46.276 8.48C46.3027 8.48 46.3307 8.468 46.36 8.444C46.3893 8.41734 46.4173 8.388 46.444 8.356C46.4733 8.324 46.496 8.29867 46.512 8.28L46.54 8.312C46.516 8.33334 46.5 8.356 46.492 8.38C46.4867 8.404 46.4773 8.43067 46.464 8.46C46.4533 8.48667 46.4387 8.50934 46.42 8.528C46.4013 8.54667 46.3707 8.556 46.328 8.556C46.3013 8.556 46.2747 8.55067 46.248 8.54C46.224 8.52667 46.2013 8.51334 46.18 8.5C46.1533 8.48667 46.1267 8.47467 46.1 8.464C46.0733 8.45334 46.0467 8.43867 46.02 8.42C45.9933 8.40134 45.9707 8.37734 45.952 8.348C45.9333 8.316 45.924 8.27067 45.924 8.212C45.924 8.10534 45.9453 7.98934 45.988 7.864C46.0333 7.736 46.0773 7.62534 46.12 7.532H46.112V7.528C46.0667 7.53067 46.0347 7.536 46.016 7.544C46 7.54934 45.9667 7.55467 45.916 7.56C45.8973 7.56267 45.8587 7.56934 45.8 7.58C45.7413 7.588 45.6733 7.59867 45.596 7.612C45.5213 7.62267 45.4467 7.63467 45.372 7.648C45.2973 7.66134 45.2347 7.67334 45.184 7.684C45.1333 7.69467 45.1053 7.70267 45.1 7.708C45.0867 7.72134 45.072 7.752 45.056 7.8C45.04 7.848 45.0253 7.89734 45.012 7.948C44.9987 7.99867 44.9893 8.036 44.984 8.06C44.984 8.068 44.9827 8.08267 44.98 8.104C44.9773 8.12534 44.9733 8.14667 44.968 8.168C44.9653 8.18667 44.9613 8.204 44.956 8.22C44.9507 8.236 44.9453 8.24934 44.94 8.26C44.9427 8.268 44.944 8.28 44.944 8.296C44.944 8.30934 44.9427 8.32267 44.94 8.336C44.94 8.34934 44.94 8.36267 44.94 8.376C44.9507 8.47734 44.9933 8.56267 45.068 8.632L45.08 8.64C45.0853 8.64267 45.088 8.64534 45.088 8.648C45.088 8.65067 45.088 8.652 45.088 8.652C45.088 8.65734 45.0827 8.66134 45.072 8.664C45.0613 8.66667 45.0533 8.66934 45.048 8.672L44.956 8.676Z" fill="black"/>
</svg>
