<svg width="667" height="221" viewBox="0 0 667 221" fill="none" xmlns="http://www.w3.org/2000/svg">
<path d="M273.778 119.033C273.778 120.497 272.583 121.629 271.199 121.629H262.691V151.6C262.691 153.276 261.355 154.691 259.831 154.691C258.213 154.691 256.877 153.276 256.877 151.6V121.629H248.368C246.962 121.629 245.79 120.497 245.79 119.033C245.79 117.57 246.985 116.438 248.368 116.438H271.199C272.606 116.438 273.778 117.57 273.778 119.033Z" fill="#2F3D56"/>
<path d="M310.183 149.218C311.59 149.218 312.762 150.351 312.762 151.767C312.762 153.23 311.566 154.363 310.183 154.363H291.009C289.181 154.363 287.821 153.017 287.821 151.153V119.625C287.821 117.784 289.157 116.416 291.009 116.416H309.644C311.051 116.416 312.223 117.548 312.223 118.964C312.223 120.427 311.027 121.56 309.644 121.56H293.658V132.864H304.652C306.058 132.864 307.183 133.997 307.183 135.294C307.183 136.64 306.058 137.796 304.652 137.796H293.658V149.241H310.183V149.218Z" fill="#2F3D56"/>
<path d="M355.234 148.628C355.234 149.973 354.321 150.964 352.701 152.049C350.288 153.725 347.145 154.763 343.325 154.763C333.855 154.763 324.385 146.858 324.385 135.412C324.385 123.967 333.855 116.061 343.325 116.061C347.145 116.061 350.266 117.099 352.701 118.775C354.321 119.861 355.234 120.828 355.234 122.197C355.234 123.872 353.945 124.863 352.537 124.863C351.413 124.863 350.664 124.321 349.96 123.778C348.765 122.858 346.397 121.654 343.395 121.654C336.67 121.654 330.481 127.507 330.481 135.412C330.481 143.318 336.67 149.17 343.395 149.17C346.419 149.17 348.787 147.967 349.96 147.046C350.664 146.504 351.413 145.961 352.537 145.961C353.945 145.961 355.234 146.952 355.234 148.628Z" fill="#2F3D56"/>
<path d="M396.375 116.271C397.992 116.271 399.235 117.616 399.235 119.244V151.551C399.235 153.179 397.992 154.524 396.375 154.524C394.711 154.524 393.419 153.179 393.419 151.551V138.265H375.395V151.551C375.395 153.179 374.107 154.524 372.535 154.524C370.871 154.524 369.582 153.179 369.582 151.551V119.244C369.582 117.616 370.871 116.271 372.535 116.271C374.107 116.271 375.395 117.616 375.395 119.244V133.238H393.419V119.244C393.419 117.616 394.711 116.271 396.375 116.271Z" fill="#2F3D56"/>
<path d="M445.529 119.291V151.81C445.529 153.651 444.285 154.619 442.784 154.619C441.544 154.619 440.58 154.028 439.831 152.896L420.821 127.032V151.574C420.821 153.203 419.484 154.619 417.913 154.619C416.251 154.619 414.889 153.203 414.889 151.574V119.079C414.889 117.238 416.132 116.271 417.633 116.271C418.877 116.271 419.837 116.86 420.586 117.993L439.597 143.857V119.315C439.597 117.686 440.933 116.271 442.505 116.271C444.192 116.271 445.529 117.686 445.529 119.291Z" fill="#2F3D56"/>
<path d="M498.133 135.412C498.133 146.858 488.827 154.763 479.405 154.763C469.98 154.763 460.674 146.858 460.674 135.412C460.674 123.967 469.98 116.061 479.405 116.061C488.827 116.061 498.133 123.967 498.133 135.412ZM466.747 135.412C466.747 143.648 472.84 149.17 479.405 149.17C485.967 149.17 492.062 143.648 492.062 135.412C492.062 127.176 486.037 121.583 479.405 121.583C472.84 121.583 466.747 127.153 466.747 135.412Z" fill="#2F3D56"/>
<path d="M534.162 149.169C535.495 149.169 536.739 150.302 536.739 151.765C536.739 153.228 535.495 154.361 534.162 154.361H516.44C514.611 154.361 513.252 153.016 513.252 151.151V119.293C513.252 117.617 514.541 116.249 516.205 116.249C517.776 116.249 519.065 117.594 519.065 119.293V149.169H534.162Z" fill="#2F3D56"/>
<path d="M584.013 151.883C584.013 153.346 582.773 154.597 581.153 154.597C579.865 154.597 578.833 153.842 578.364 152.756L575.083 145.016H558.653L555.369 152.756C554.877 153.842 553.871 154.597 552.58 154.597C550.963 154.597 549.72 153.346 549.72 151.883C549.72 151.34 549.884 150.751 550.096 150.302L564.042 118.373C564.63 116.957 565.498 116.202 566.831 116.202C568.168 116.202 569.084 116.957 569.691 118.373L583.641 150.302C583.849 150.751 584.013 151.34 584.013 151.883ZM573.068 140.343L566.831 125.712L560.645 140.343H573.068Z" fill="#2F3D56"/>
<path d="M625.129 143.483C625.129 150.162 620.344 154.386 611.228 154.386H601.5C599.672 154.386 598.31 153.041 598.31 151.177V119.625C598.31 117.784 599.646 116.416 601.5 116.416H610.874C617.886 116.416 622.712 119.837 622.712 125.902C622.712 129.159 621.26 131.967 617.391 133.383C623.088 135.413 625.129 139.023 625.129 143.483ZM604.148 131.66H610.874C614.814 131.66 617.018 129.82 617.018 126.563C617.018 123.354 614.814 121.418 610.874 121.418H604.148V131.66ZM619.48 142.988C619.48 139.259 617.063 136.262 611.25 136.262H604.148V149.383H611.25C617.063 149.383 619.48 146.787 619.48 142.988Z" fill="#2F3D56"/>
<path d="M661.739 120.829C662.536 121.867 662.983 122.67 662.983 123.543C662.983 124.841 661.951 125.879 660.57 125.879C659.538 125.879 658.693 125.336 658.086 124.628C656.585 122.622 654.895 121.277 651.849 121.277C648.028 121.277 645.659 123.236 645.659 126.21C645.659 128.593 647.16 130.339 650.676 131.684L653.327 132.723C660.92 135.649 664.789 138.41 664.789 143.885C664.789 151.083 657.732 154.788 651.498 154.788C646.926 154.788 642.237 152.782 639.824 149.053C639.403 148.463 638.699 147.472 638.699 146.292C638.699 144.994 639.496 143.743 641.113 143.743C642.401 143.743 643.317 144.546 643.902 145.466C645.73 148.274 648.59 149.525 651.498 149.525C654.827 149.525 658.812 148.109 658.812 143.885C658.812 140.463 656.28 139.118 652.131 137.49L649.223 136.357C643.831 134.233 639.846 131.472 639.846 126.162C639.846 120.027 645.123 116.086 651.636 116.086C656.585 116.062 659.702 118.21 661.739 120.829Z" fill="#2F3D56"/>
<path d="M349.161 11.962V91.4666C349.161 96.5877 344.894 101.024 339.527 101.024C334.441 101.024 330.173 96.5877 330.173 91.4666V44.9299L305.537 91.6084C303.756 94.9357 300.732 96.8708 297.427 96.8708C294.262 96.8708 291.239 94.9357 289.457 91.6084L264.68 44.9299V91.4666C264.68 96.5877 260.555 101.024 255.468 101.024C250.1 101.024 245.834 96.5877 245.834 91.4666V11.962C245.834 6.13314 250.241 3.23047 254.367 3.23047C258.211 3.23047 261.797 6.13314 263.719 9.46057L297.427 70.5581L331.275 9.46057C333.197 6.13314 336.783 3.23047 340.626 3.23047C344.753 3.25408 349.161 6.15672 349.161 11.962Z" fill="#136FAD"/>
<path d="M460.198 52.151C460.198 81.39 436.406 101.591 412.167 101.591C388.095 101.591 364.277 81.3665 364.277 52.151C364.277 22.9357 388.069 2.71145 412.167 2.71145C436.383 2.68785 460.198 22.9121 460.198 52.151ZM383.686 52.151C383.686 71.1247 397.025 83.8679 412.167 83.8679C427.45 83.8679 440.789 71.1247 440.789 52.151C440.789 33.1777 427.569 20.4342 412.167 20.4342C397.025 20.4342 383.686 33.1777 383.686 52.151Z" fill="#136FAD"/>
<path d="M569.848 52.151C569.848 81.39 546.056 101.591 521.817 101.591C497.746 101.591 473.928 81.3665 473.928 52.151C473.928 22.9357 497.723 2.71145 521.817 2.71145C546.034 2.68785 569.848 22.9121 569.848 52.151ZM493.337 52.151C493.337 71.1247 506.676 83.8679 521.817 83.8679C537.103 83.8679 550.439 71.1247 550.439 52.151C550.439 33.1777 537.242 20.4342 521.817 20.4342C506.698 20.4342 493.337 33.1777 493.337 52.151Z" fill="#136FAD"/>
<path d="M664.784 12.8116V92.3163C664.784 98.2633 660.94 101.449 656.111 101.449C652.126 101.449 648.961 99.3723 646.477 95.9033L603.815 37.4487V91.8915C603.815 97.0126 599.689 101.449 594.603 101.449C589.236 101.449 584.969 97.0126 584.969 91.8915V12.2452C584.969 6.4163 588.812 3.23047 593.783 3.23047C597.768 3.23047 600.933 5.30718 603.276 8.63461L645.937 67.2305V12.8116C645.937 7.69066 650.204 3.25408 655.291 3.25408C660.658 3.25408 664.784 7.66705 664.784 12.8116Z" fill="#136FAD"/>
<path d="M212.853 148.838V8.82598C212.853 3.96461 208.915 0 204.063 0H65.3414C57.6292 0 53.7615 9.36875 59.2234 14.8673L198.062 154.997C203.501 160.496 212.853 156.626 212.853 148.838Z" fill="#70BDE9"/>
<path d="M204.18 0H12.2484C5.26312 0 1.16101 7.88203 5.12246 13.6638L101.089 154.054C104.534 159.08 111.918 159.08 115.364 154.054L211.306 13.6638C215.244 7.88203 211.142 0 204.18 0Z" fill="#3495CC"/>
<path d="M2.82617 148.838V8.70799C2.82617 3.89381 6.69387 0 11.4758 0H150.315C158.027 0 161.894 9.36875 156.456 14.8673L17.6172 154.997C12.1556 160.496 2.82617 156.602 2.82617 148.838Z" fill="#146FAC"/>
<path d="M25.8021 181.849V207.914C25.8021 208.498 25.5831 209.009 25.145 209.447C24.7362 209.885 24.2251 210.104 23.6118 210.104H22.9986C22.064 210.104 21.3339 209.666 20.8083 208.79L8.49887 188.289V207.738C8.49887 208.381 8.26524 208.936 7.79798 209.403C7.33072 209.87 6.76125 210.104 6.08956 210.104C5.47628 210.104 4.95061 209.87 4.51255 209.403C4.0745 208.936 3.85547 208.381 3.85547 207.738V181.718C3.85547 181.105 4.0745 180.579 4.51255 180.141C4.95061 179.703 5.47628 179.484 6.08956 179.484H6.70284C7.69577 179.484 8.45507 179.922 8.98074 180.798L21.1587 201.124V181.849C21.1587 181.207 21.3778 180.652 21.8158 180.185C22.2539 179.717 22.7795 179.484 23.3928 179.484C24.0645 179.484 24.634 179.717 25.1012 180.185C25.5685 180.652 25.8021 181.207 25.8021 181.849Z" fill="#2F3D56"/>
<path d="M37.1037 197.97H48.975C48.7706 196.393 48.1281 195.166 47.0475 194.29C45.9962 193.385 44.6966 192.932 43.1488 192.932C41.5426 192.932 40.1847 193.385 39.0749 194.29C37.9652 195.195 37.3081 196.422 37.1037 197.97ZM53.3994 199.196C53.3994 199.78 53.1949 200.277 52.7861 200.686C52.3772 201.065 51.8954 201.255 51.3405 201.255H37.1037C37.3081 202.832 37.9798 204.088 39.1187 205.023C40.2869 205.928 41.7033 206.381 43.3679 206.381C44.3608 206.381 45.2077 206.22 45.9086 205.899C46.6387 205.577 47.4126 205.081 48.2303 204.409C48.6392 204.059 49.0918 203.854 49.5883 203.796C50.1139 203.738 50.625 203.884 51.1215 204.234C51.5303 204.555 51.7348 205.008 51.7348 205.592C51.764 206.176 51.5887 206.673 51.2091 207.081C49.1356 209.242 46.4489 210.323 43.1488 210.323C40.1701 210.323 37.6731 209.33 35.6581 207.344C33.643 205.358 32.6355 202.774 32.6355 199.591C32.6355 196.407 33.643 193.852 35.6581 191.925C37.6731 189.968 40.1701 188.99 43.1488 188.99C46.04 188.99 48.4493 189.924 50.3768 191.793C52.3042 193.633 53.3118 196.101 53.3994 199.196Z" fill="#2F3D56"/>
<path d="M66.2748 202.394L61.3248 209.184C60.9743 209.651 60.5071 209.943 59.923 210.06C59.3681 210.177 58.8279 210.089 58.3022 209.797C57.8057 209.505 57.4991 209.067 57.3823 208.483C57.2947 207.87 57.4261 207.33 57.7765 206.862L63.6903 198.715L59.2221 192.538C58.9009 192.071 58.7841 191.545 58.8717 190.961C58.9885 190.348 59.2951 189.88 59.7916 189.559C60.3173 189.238 60.8721 189.136 61.4562 189.252C62.0403 189.369 62.5075 189.676 62.858 190.172L66.2748 195.079L69.6917 190.172C70.0421 189.676 70.5094 189.369 71.0935 189.252C71.6775 189.136 72.2324 189.238 72.7581 189.559C73.2545 189.88 73.5466 190.348 73.6342 190.961C73.751 191.545 73.6488 192.071 73.3275 192.538L68.8594 198.715L74.7731 206.862C75.1236 207.33 75.2404 207.87 75.1236 208.483C75.036 209.067 74.7439 209.505 74.2475 209.797C73.7218 210.089 73.1669 210.177 72.5828 210.06C72.028 209.943 71.5753 209.651 71.2249 209.184L66.2748 202.394Z" fill="#2F3D56"/>
<path d="M82.5668 207.826V193.151H80.5517C80.0553 193.151 79.6172 192.976 79.2376 192.626C78.8579 192.275 78.6681 191.852 78.6681 191.355C78.6681 190.8 78.8433 190.348 79.1937 189.997C79.5734 189.618 80.0261 189.428 80.5517 189.428H82.5668V183.733C82.5668 183.12 82.7712 182.594 83.1801 182.156C83.6181 181.689 84.1438 181.455 84.7571 181.455C85.3996 181.455 85.9398 181.689 86.3779 182.156C86.8451 182.594 87.0788 183.12 87.0788 183.733V189.428H89.7509C90.2766 189.428 90.7146 189.618 91.0651 189.997C91.4447 190.348 91.6346 190.8 91.6346 191.355C91.6346 191.852 91.4447 192.275 91.0651 192.626C90.6854 192.976 90.2474 193.151 89.7509 193.151H87.0788V207.826C87.0788 208.439 86.8451 208.98 86.3779 209.447C85.9398 209.885 85.3996 210.104 84.7571 210.104C84.1438 210.104 83.6181 209.885 83.1801 209.447C82.7712 208.98 82.5668 208.439 82.5668 207.826Z" fill="#2F3D56"/>
<path d="M97.9258 197.488H109.534C110.118 197.488 110.6 197.692 110.98 198.101C111.389 198.51 111.593 199.007 111.593 199.591C111.593 200.146 111.389 200.627 110.98 201.036C110.6 201.416 110.118 201.606 109.534 201.606H97.9258C97.3417 201.606 96.8453 201.416 96.4364 201.036C96.0568 200.627 95.867 200.146 95.867 199.591C95.867 199.007 96.0568 198.51 96.4364 198.101C96.8453 197.692 97.3417 197.488 97.9258 197.488Z" fill="#2F3D56"/>
<path d="M142.791 198.539H135.738C135.183 198.539 134.702 198.349 134.293 197.97C133.913 197.59 133.723 197.138 133.723 196.612C133.723 196.057 133.913 195.575 134.293 195.166C134.702 194.757 135.183 194.553 135.738 194.553H145.682C147.172 194.553 147.829 195.385 147.654 197.05C147.245 201.401 145.726 204.701 143.098 206.95C140.499 209.199 137.257 210.323 133.373 210.323C129.109 210.323 125.488 208.819 122.509 205.811C119.559 202.803 118.085 199.153 118.085 194.86C118.085 190.567 119.559 186.916 122.509 183.908C125.459 180.871 129.08 179.352 133.373 179.352C136.614 179.352 139.637 180.345 142.441 182.331C142.908 182.682 143.185 183.178 143.273 183.821C143.361 184.463 143.156 185.106 142.66 185.748C142.163 186.186 141.608 186.391 140.995 186.361C140.411 186.332 139.871 186.142 139.374 185.792C137.388 184.478 135.388 183.821 133.373 183.821C130.394 183.821 127.868 184.901 125.794 187.062C123.75 189.194 122.728 191.793 122.728 194.86C122.728 197.926 123.75 200.525 125.794 202.657C127.868 204.789 130.394 205.855 133.373 205.855C138.6 205.767 141.74 203.329 142.791 198.539Z" fill="#2F3D56"/>
<path d="M156.722 197.97H168.594C168.389 196.393 167.747 195.166 166.666 194.29C165.615 193.385 164.315 192.932 162.768 192.932C161.161 192.932 159.803 193.385 158.694 194.29C157.584 195.195 156.927 196.422 156.722 197.97ZM173.018 199.196C173.018 199.78 172.814 200.277 172.405 200.686C171.996 201.065 171.514 201.255 170.959 201.255H156.722C156.927 202.832 157.598 204.088 158.737 205.023C159.906 205.928 161.322 206.381 162.987 206.381C163.979 206.381 164.826 206.22 165.527 205.899C166.257 205.577 167.031 205.081 167.849 204.409C168.258 204.059 168.71 203.854 169.207 203.796C169.733 203.738 170.244 203.884 170.74 204.234C171.149 204.555 171.353 205.008 171.353 205.592C171.383 206.176 171.207 206.673 170.828 207.081C168.754 209.242 166.068 210.323 162.768 210.323C159.789 210.323 157.292 209.33 155.277 207.344C153.262 205.358 152.254 202.774 152.254 199.591C152.254 196.407 153.262 193.852 155.277 191.925C157.292 189.968 159.789 188.99 162.768 188.99C165.659 188.99 168.068 189.924 169.995 191.793C171.923 193.633 172.93 196.101 173.018 199.196Z" fill="#2F3D56"/>
<path d="M179.011 207.826V191.487C179.011 190.873 179.23 190.348 179.668 189.91C180.135 189.442 180.69 189.209 181.333 189.209C181.946 189.209 182.457 189.442 182.866 189.91C183.304 190.348 183.523 190.873 183.523 191.487V192.494C184.078 191.384 184.954 190.523 186.151 189.91C187.349 189.296 188.561 188.99 189.787 188.99C192.269 188.99 194.182 189.764 195.526 191.311C196.898 192.859 197.584 195.079 197.584 197.97V207.826C197.584 208.439 197.351 208.98 196.884 209.447C196.446 209.885 195.905 210.104 195.263 210.104C194.649 210.104 194.124 209.885 193.686 209.447C193.277 208.98 193.072 208.439 193.072 207.826V198.495C193.072 196.889 192.678 195.648 191.89 194.772C191.13 193.867 190.094 193.414 188.78 193.414C187.29 193.414 186.034 193.867 185.012 194.772C184.019 195.648 183.523 197.021 183.523 198.89V207.826C183.523 208.439 183.289 208.98 182.822 209.447C182.384 209.885 181.844 210.104 181.201 210.104C180.588 210.104 180.062 209.885 179.624 209.447C179.215 208.98 179.011 208.439 179.011 207.826Z" fill="#2F3D56"/>
<path d="M223.059 183.996V205.592H230.155C233.017 205.592 235.222 204.584 236.77 202.569C238.318 200.554 239.091 197.984 239.091 194.86C239.091 191.706 238.303 189.106 236.726 187.062C235.178 185.018 232.988 183.996 230.155 183.996H223.059ZM230.155 209.885H220.868C220.138 209.885 219.539 209.651 219.072 209.184C218.634 208.717 218.415 208.104 218.415 207.344V182.244C218.415 181.455 218.634 180.842 219.072 180.404C219.539 179.936 220.138 179.703 220.868 179.703H230.155C234.331 179.703 237.631 181.134 240.055 183.996C242.508 186.829 243.735 190.45 243.735 194.86C243.735 199.24 242.523 202.847 240.099 205.68C237.675 208.483 234.36 209.885 230.155 209.885Z" fill="#2F3D56"/>
<path d="M253.846 197.97H265.717C265.513 196.393 264.87 195.166 263.79 194.29C262.739 193.385 261.439 192.932 259.891 192.932C258.285 192.932 256.927 193.385 255.817 194.29C254.708 195.195 254.05 196.422 253.846 197.97ZM270.142 199.196C270.142 199.78 269.937 200.277 269.529 200.686C269.12 201.065 268.638 201.255 268.083 201.255H253.846C254.05 202.832 254.722 204.088 255.861 205.023C257.029 205.928 258.446 206.381 260.11 206.381C261.103 206.381 261.95 206.22 262.651 205.899C263.381 205.577 264.155 205.081 264.973 204.409C265.382 204.059 265.834 203.854 266.331 203.796C266.856 203.738 267.367 203.884 267.864 204.234C268.273 204.555 268.477 205.008 268.477 205.592C268.506 206.176 268.331 206.673 267.952 207.081C265.878 209.242 263.191 210.323 259.891 210.323C256.912 210.323 254.416 209.33 252.4 207.344C250.385 205.358 249.378 202.774 249.378 199.591C249.378 196.407 250.385 193.852 252.4 191.925C254.416 189.968 256.912 188.99 259.891 188.99C262.782 188.99 265.192 189.924 267.119 191.793C269.047 193.633 270.054 196.101 270.142 199.196Z" fill="#2F3D56"/>
<path d="M293.139 192.056L286.437 208.045C285.882 209.418 284.977 210.104 283.721 210.104H283.458C282.173 210.104 281.253 209.418 280.699 208.045L274.04 192.056C273.807 191.472 273.836 190.888 274.128 190.304C274.449 189.72 274.916 189.369 275.53 189.252C276.114 189.136 276.654 189.223 277.15 189.515C277.676 189.778 278.041 190.187 278.245 190.742L283.59 204.146L288.934 190.742C289.138 190.187 289.489 189.778 289.985 189.515C290.511 189.223 291.066 189.136 291.65 189.252C292.263 189.369 292.716 189.72 293.008 190.304C293.329 190.888 293.373 191.472 293.139 192.056Z" fill="#2F3D56"/>
<path d="M301.873 197.97H313.745C313.54 196.393 312.898 195.166 311.817 194.29C310.766 193.385 309.466 192.932 307.918 192.932C306.312 192.932 304.954 193.385 303.844 194.29C302.735 195.195 302.078 196.422 301.873 197.97ZM318.169 199.196C318.169 199.78 317.964 200.277 317.556 200.686C317.147 201.065 316.665 201.255 316.11 201.255H301.873C302.078 202.832 302.749 204.088 303.888 205.023C305.056 205.928 306.473 206.381 308.137 206.381C309.13 206.381 309.977 206.22 310.678 205.899C311.408 205.577 312.182 205.081 313 204.409C313.409 204.059 313.861 203.854 314.358 203.796C314.883 203.738 315.395 203.884 315.891 204.234C316.3 204.555 316.504 205.008 316.504 205.592C316.533 206.176 316.358 206.673 315.979 207.081C313.905 209.242 311.218 210.323 307.918 210.323C304.94 210.323 302.443 209.33 300.428 207.344C298.413 205.358 297.405 202.774 297.405 199.591C297.405 196.407 298.413 193.852 300.428 191.925C302.443 189.968 304.94 188.99 307.918 188.99C310.81 188.99 313.219 189.924 315.146 191.793C317.074 193.633 318.081 196.101 318.169 199.196Z" fill="#2F3D56"/>
<path d="M328.761 180.36V207.826C328.761 208.439 328.528 208.98 328.06 209.447C327.622 209.885 327.082 210.104 326.44 210.104C325.826 210.104 325.301 209.885 324.863 209.447C324.454 208.98 324.249 208.439 324.249 207.826V180.36C324.249 179.747 324.454 179.221 324.863 178.783C325.301 178.316 325.826 178.082 326.44 178.082C327.082 178.082 327.622 178.316 328.06 178.783C328.528 179.221 328.761 179.747 328.761 180.36Z" fill="#2F3D56"/>
<path d="M345.938 205.942C347.691 205.942 349.165 205.358 350.363 204.19C351.589 202.993 352.203 201.46 352.203 199.591C352.203 197.751 351.589 196.261 350.363 195.122C349.165 193.954 347.691 193.37 345.938 193.37C344.215 193.37 342.755 193.954 341.558 195.122C340.36 196.261 339.762 197.751 339.762 199.591C339.762 201.46 340.36 202.993 341.558 204.19C342.755 205.358 344.215 205.942 345.938 205.942ZM353.517 207.344C351.443 209.33 348.917 210.323 345.938 210.323C342.96 210.323 340.433 209.33 338.36 207.344C336.316 205.329 335.294 202.745 335.294 199.591C335.294 196.437 336.316 193.881 338.36 191.925C340.433 189.968 342.96 188.99 345.938 188.99C348.946 188.99 351.487 189.968 353.56 191.925C355.634 193.881 356.671 196.437 356.671 199.591C356.671 202.745 355.619 205.329 353.517 207.344Z" fill="#2F3D56"/>
<path d="M367.719 191.487V192.45C368.333 191.37 369.267 190.523 370.523 189.91C371.808 189.296 373.151 188.99 374.553 188.99C377.386 188.99 379.78 189.983 381.737 191.968C383.723 193.954 384.716 196.524 384.716 199.678C384.716 202.861 383.723 205.431 381.737 207.388C379.78 209.345 377.386 210.323 374.553 210.323C373.093 210.323 371.735 210.031 370.479 209.447C369.253 208.863 368.333 208.031 367.719 206.95V217.77C367.719 218.383 367.486 218.909 367.018 219.347C366.58 219.814 366.04 220.048 365.398 220.048C364.784 220.048 364.259 219.814 363.821 219.347C363.412 218.909 363.207 218.383 363.207 217.77V191.487C363.207 190.873 363.412 190.348 363.821 189.91C364.259 189.442 364.784 189.209 365.398 189.209C366.04 189.209 366.58 189.442 367.018 189.91C367.486 190.348 367.719 190.873 367.719 191.487ZM367.763 199.766C367.763 201.664 368.376 203.183 369.603 204.322C370.859 205.431 372.319 205.986 373.984 205.986C375.736 205.986 377.196 205.417 378.364 204.278C379.532 203.11 380.116 201.606 380.116 199.766C380.116 197.897 379.518 196.364 378.32 195.166C377.152 193.969 375.707 193.37 373.984 193.37C372.26 193.37 370.786 193.954 369.559 195.122C368.362 196.291 367.763 197.838 367.763 199.766Z" fill="#2F3D56"/>
<path d="M395.731 191.487V192.494C396.344 191.238 397.278 190.348 398.534 189.822C399.819 189.267 401.031 188.99 402.17 188.99C405.266 188.99 407.412 190.348 408.61 193.064C410.099 190.348 412.391 188.99 415.487 188.99C417.999 188.99 419.941 189.778 421.313 191.355C422.686 192.932 423.372 195.181 423.372 198.101V207.826C423.372 208.439 423.138 208.98 422.671 209.447C422.233 209.885 421.693 210.104 421.05 210.104C420.437 210.104 419.911 209.885 419.473 209.447C419.064 208.98 418.86 208.439 418.86 207.826V198.495C418.86 196.918 418.466 195.677 417.677 194.772C416.889 193.867 415.837 193.414 414.523 193.414C413.034 193.414 411.837 193.925 410.931 194.947C410.026 195.94 409.573 197.254 409.573 198.89V207.826C409.573 208.439 409.34 208.98 408.872 209.447C408.434 209.885 407.894 210.104 407.252 210.104C406.638 210.104 406.113 209.885 405.675 209.447C405.266 208.98 405.061 208.439 405.061 207.826V198.408C405.061 196.86 404.667 195.648 403.878 194.772C403.119 193.867 402.126 193.414 400.9 193.414C399.44 193.414 398.213 193.867 397.22 194.772C396.227 195.648 395.731 197.021 395.731 198.89V207.826C395.731 208.439 395.497 208.98 395.03 209.447C394.592 209.885 394.051 210.104 393.409 210.104C392.796 210.104 392.27 209.885 391.832 209.447C391.423 208.98 391.219 208.439 391.219 207.826V191.487C391.219 190.873 391.438 190.348 391.876 189.91C392.343 189.442 392.898 189.209 393.54 189.209C394.154 189.209 394.665 189.442 395.074 189.91C395.512 190.348 395.731 190.873 395.731 191.487Z" fill="#2F3D56"/>
<path d="M434.112 197.97H445.983C445.779 196.393 445.136 195.166 444.056 194.29C443.004 193.385 441.705 192.932 440.157 192.932C438.551 192.932 437.193 193.385 436.083 194.29C434.973 195.195 434.316 196.422 434.112 197.97ZM450.407 199.196C450.407 199.78 450.203 200.277 449.794 200.686C449.385 201.065 448.903 201.255 448.349 201.255H434.112C434.316 202.832 434.988 204.088 436.127 205.023C437.295 205.928 438.711 206.381 440.376 206.381C441.369 206.381 442.216 206.22 442.917 205.899C443.647 205.577 444.421 205.081 445.238 204.409C445.647 204.059 446.1 203.854 446.596 203.796C447.122 203.738 447.633 203.884 448.129 204.234C448.538 204.555 448.743 205.008 448.743 205.592C448.772 206.176 448.597 206.673 448.217 207.081C446.144 209.242 443.457 210.323 440.157 210.323C437.178 210.323 434.681 209.33 432.666 207.344C430.651 205.358 429.643 202.774 429.643 199.591C429.643 196.407 430.651 193.852 432.666 191.925C434.681 189.968 437.178 188.99 440.157 188.99C443.048 188.99 445.457 189.924 447.385 191.793C449.312 193.633 450.32 196.101 450.407 199.196Z" fill="#2F3D56"/>
<path d="M456.4 207.826V191.487C456.4 190.873 456.619 190.348 457.057 189.91C457.525 189.442 458.079 189.209 458.722 189.209C459.335 189.209 459.846 189.442 460.255 189.91C460.693 190.348 460.912 190.873 460.912 191.487V192.494C461.467 191.384 462.343 190.523 463.541 189.91C464.738 189.296 465.95 188.99 467.176 188.99C469.659 188.99 471.572 189.764 472.915 191.311C474.288 192.859 474.974 195.079 474.974 197.97V207.826C474.974 208.439 474.74 208.98 474.273 209.447C473.835 209.885 473.295 210.104 472.652 210.104C472.039 210.104 471.513 209.885 471.075 209.447C470.666 208.98 470.462 208.439 470.462 207.826V198.495C470.462 196.889 470.068 195.648 469.279 194.772C468.52 193.867 467.483 193.414 466.169 193.414C464.679 193.414 463.424 193.867 462.402 194.772C461.409 195.648 460.912 197.021 460.912 198.89V207.826C460.912 208.439 460.679 208.98 460.211 209.447C459.773 209.885 459.233 210.104 458.59 210.104C457.977 210.104 457.452 209.885 457.013 209.447C456.605 208.98 456.4 208.439 456.4 207.826Z" fill="#2F3D56"/>
<path d="M483.981 207.826V193.151H481.966C481.469 193.151 481.031 192.976 480.652 192.626C480.272 192.275 480.082 191.852 480.082 191.355C480.082 190.8 480.257 190.348 480.608 189.997C480.988 189.618 481.44 189.428 481.966 189.428H483.981V183.733C483.981 183.12 484.185 182.594 484.594 182.156C485.032 181.689 485.558 181.455 486.171 181.455C486.814 181.455 487.354 181.689 487.792 182.156C488.259 182.594 488.493 183.12 488.493 183.733V189.428H491.165C491.691 189.428 492.129 189.618 492.479 189.997C492.859 190.348 493.049 190.8 493.049 191.355C493.049 191.852 492.859 192.275 492.479 192.626C492.1 192.976 491.662 193.151 491.165 193.151H488.493V207.826C488.493 208.439 488.259 208.98 487.792 209.447C487.354 209.885 486.814 210.104 486.171 210.104C485.558 210.104 485.032 209.885 484.594 209.447C484.185 208.98 483.981 208.439 483.981 207.826Z" fill="#2F3D56"/>
<path d="M523.03 183.996H515.67V194.553H522.854C524.431 194.553 525.629 194.042 526.447 193.02C527.264 191.968 527.673 190.727 527.673 189.296C527.673 187.865 527.279 186.624 526.49 185.573C525.702 184.521 524.548 183.996 523.03 183.996ZM515.67 198.802V207.738C515.67 208.381 515.437 208.936 514.969 209.403C514.502 209.87 513.933 210.104 513.261 210.104C512.648 210.104 512.122 209.87 511.684 209.403C511.246 208.936 511.027 208.381 511.027 207.738V182.244C511.027 181.455 511.246 180.842 511.684 180.404C512.151 179.936 512.75 179.703 513.48 179.703H523.117C526.154 179.703 528.447 180.637 529.995 182.506C531.543 184.375 532.317 186.639 532.317 189.296C532.317 191.954 531.543 194.203 529.995 196.042C528.476 197.882 526.184 198.802 523.117 198.802H515.67Z" fill="#2F3D56"/>
<path d="M553.431 207.826V206.95C552.789 208.001 551.81 208.834 550.496 209.447C549.211 210.031 547.897 210.323 546.554 210.323C543.692 210.323 541.239 209.33 539.194 207.344C537.179 205.358 536.172 202.788 536.172 199.634C536.172 196.48 537.179 193.925 539.194 191.968C541.239 189.983 543.692 188.99 546.554 188.99C547.897 188.99 549.211 189.282 550.496 189.866C551.781 190.421 552.759 191.238 553.431 192.319V191.487C553.431 190.873 553.636 190.348 554.044 189.91C554.483 189.442 555.008 189.209 555.621 189.209C556.264 189.209 556.804 189.442 557.242 189.91C557.71 190.348 557.943 190.873 557.943 191.487V207.826C557.943 208.439 557.71 208.98 557.242 209.447C556.804 209.885 556.264 210.104 555.621 210.104C555.008 210.104 554.483 209.885 554.044 209.447C553.636 208.98 553.431 208.439 553.431 207.826ZM542.611 195.122C541.414 196.261 540.815 197.751 540.815 199.591C540.815 201.43 541.414 202.949 542.611 204.146C543.838 205.344 545.327 205.942 547.079 205.942C548.832 205.942 550.321 205.373 551.548 204.234C552.774 203.066 553.387 201.518 553.387 199.591C553.387 197.692 552.745 196.188 551.46 195.079C550.204 193.94 548.744 193.37 547.079 193.37C545.327 193.37 543.838 193.954 542.611 195.122Z" fill="#2F3D56"/>
<path d="M575.526 193.239C573.686 193.239 572.313 194.071 571.408 195.736C570.503 197.4 570.05 199.664 570.05 202.526V207.826C570.05 208.439 569.816 208.98 569.349 209.447C568.911 209.885 568.371 210.104 567.728 210.104C567.115 210.104 566.589 209.885 566.151 209.447C565.742 208.98 565.538 208.439 565.538 207.826V191.487C565.538 190.873 565.742 190.348 566.151 189.91C566.589 189.442 567.115 189.209 567.728 189.209C568.371 189.209 568.911 189.442 569.349 189.91C569.816 190.348 570.05 190.873 570.05 191.487V194.115C571.043 190.698 572.912 188.99 575.657 188.99C576.387 188.99 577.03 189.048 577.585 189.165C578.169 189.311 578.607 189.632 578.899 190.129C579.22 190.625 579.322 191.165 579.205 191.749C579.118 192.129 578.986 192.436 578.811 192.669C578.636 192.903 578.388 193.064 578.066 193.151C577.774 193.21 577.526 193.253 577.322 193.283C577.117 193.312 576.796 193.312 576.358 193.283C575.92 193.253 575.642 193.239 575.526 193.239Z" fill="#2F3D56"/>
<path d="M585.804 207.826V193.151H583.789C583.292 193.151 582.854 192.976 582.474 192.626C582.095 192.275 581.905 191.852 581.905 191.355C581.905 190.8 582.08 190.348 582.431 189.997C582.81 189.618 583.263 189.428 583.789 189.428H585.804V183.733C585.804 183.12 586.008 182.594 586.417 182.156C586.855 181.689 587.381 181.455 587.994 181.455C588.636 181.455 589.177 181.689 589.615 182.156C590.082 182.594 590.316 183.12 590.316 183.733V189.428H592.988C593.513 189.428 593.951 189.618 594.302 189.997C594.682 190.348 594.871 190.8 594.871 191.355C594.871 191.852 594.682 192.275 594.302 192.626C593.922 192.976 593.484 193.151 592.988 193.151H590.316V207.826C590.316 208.439 590.082 208.98 589.615 209.447C589.177 209.885 588.636 210.104 587.994 210.104C587.381 210.104 586.855 209.885 586.417 209.447C586.008 208.98 585.804 208.439 585.804 207.826Z" fill="#2F3D56"/>
<path d="M600.047 207.826V191.487C600.047 190.873 600.266 190.348 600.704 189.91C601.171 189.442 601.726 189.209 602.369 189.209C602.982 189.209 603.493 189.442 603.902 189.91C604.34 190.348 604.559 190.873 604.559 191.487V192.494C605.114 191.384 605.99 190.523 607.187 189.91C608.385 189.296 609.597 188.99 610.823 188.99C613.306 188.99 615.218 189.764 616.562 191.311C617.934 192.859 618.621 195.079 618.621 197.97V207.826C618.621 208.439 618.387 208.98 617.92 209.447C617.482 209.885 616.941 210.104 616.299 210.104C615.686 210.104 615.16 209.885 614.722 209.447C614.313 208.98 614.109 208.439 614.109 207.826V198.495C614.109 196.889 613.714 195.648 612.926 194.772C612.167 193.867 611.13 193.414 609.816 193.414C608.326 193.414 607.07 193.867 606.048 194.772C605.055 195.648 604.559 197.021 604.559 198.89V207.826C604.559 208.439 604.325 208.98 603.858 209.447C603.42 209.885 602.88 210.104 602.237 210.104C601.624 210.104 601.098 209.885 600.66 209.447C600.251 208.98 600.047 208.439 600.047 207.826Z" fill="#2F3D56"/>
<path d="M629.336 197.97H641.208C641.003 196.393 640.361 195.166 639.28 194.29C638.229 193.385 636.929 192.932 635.381 192.932C633.775 192.932 632.417 193.385 631.307 194.29C630.198 195.195 629.541 196.422 629.336 197.97ZM645.632 199.196C645.632 199.78 645.427 200.277 645.019 200.686C644.61 201.065 644.128 201.255 643.573 201.255H629.336C629.541 202.832 630.212 204.088 631.351 205.023C632.519 205.928 633.936 206.381 635.6 206.381C636.593 206.381 637.44 206.22 638.141 205.899C638.871 205.577 639.645 205.081 640.463 204.409C640.872 204.059 641.324 203.854 641.821 203.796C642.346 203.738 642.858 203.884 643.354 204.234C643.763 204.555 643.967 205.008 643.967 205.592C643.996 206.176 643.821 206.673 643.442 207.081C641.368 209.242 638.681 210.323 635.381 210.323C632.403 210.323 629.906 209.33 627.891 207.344C625.876 205.358 624.868 202.774 624.868 199.591C624.868 196.407 625.876 193.852 627.891 191.925C629.906 189.968 632.403 188.99 635.381 188.99C638.273 188.99 640.682 189.924 642.609 191.793C644.537 193.633 645.544 196.101 645.632 199.196Z" fill="#2F3D56"/>
<path d="M661.612 193.239C659.773 193.239 658.4 194.071 657.495 195.736C656.589 197.4 656.137 199.664 656.137 202.526V207.826C656.137 208.439 655.903 208.98 655.436 209.447C654.998 209.885 654.458 210.104 653.815 210.104C653.202 210.104 652.676 209.885 652.238 209.447C651.829 208.98 651.625 208.439 651.625 207.826V191.487C651.625 190.873 651.829 190.348 652.238 189.91C652.676 189.442 653.202 189.209 653.815 189.209C654.458 189.209 654.998 189.442 655.436 189.91C655.903 190.348 656.137 190.873 656.137 191.487V194.115C657.13 190.698 658.999 188.99 661.744 188.99C662.474 188.99 663.116 189.048 663.671 189.165C664.255 189.311 664.693 189.632 664.985 190.129C665.307 190.625 665.409 191.165 665.292 191.749C665.205 192.129 665.073 192.436 664.898 192.669C664.723 192.903 664.474 193.064 664.153 193.151C663.861 193.21 663.613 193.253 663.408 193.283C663.204 193.312 662.883 193.312 662.445 193.283C662.007 193.253 661.729 193.239 661.612 193.239Z" fill="#2F3D56"/>
</svg>
